<svg xmlns="http://www.w3.org/2000/svg" width="326.607" height="69.911" viewBox="0 0 326.607 69.911">
  <g id="Grupo_35947" data-name="Grupo 35947" transform="translate(-3850.864 5503.376)">
    <line id="Línea_382" data-name="Línea 382" y2="53.52" transform="translate(4027.684 -5493.932)" fill="none" stroke="#000" stroke-width="1"/>
    <g id="Capa_1" data-name="Capa 1" transform="translate(3850.864 -5503.376)">
      <path id="Trazado_45407" data-name="Trazado 45407" d="M79,419.72H77.77v6.13H79v-2.713h2.7v2.713h1.225v-6.13H81.7v2.412H79Z" transform="translate(-65.98 -356.081)"/>
      <path id="Trazado_45408" data-name="Trazado 45408" d="M135.844,419.663a2.729,2.729,0,0,0-.942-.684,3.363,3.363,0,0,0-2.538,0,2.751,2.751,0,0,0-.946.684,3.1,3.1,0,0,0-.591,1.026,3.857,3.857,0,0,0-.208,1.283,3.714,3.714,0,0,0,.208,1.254,2.972,2.972,0,0,0,.591,1.008,2.688,2.688,0,0,0,.946.672,3.414,3.414,0,0,0,2.54,0,2.729,2.729,0,0,0,.942-.673,2.972,2.972,0,0,0,.591-1.008,3.714,3.714,0,0,0,.208-1.254,3.858,3.858,0,0,0-.208-1.283A3.089,3.089,0,0,0,135.844,419.663Zm-.52,3.1a2.171,2.171,0,0,1-.3.7,1.587,1.587,0,0,1-.555.5,1.9,1.9,0,0,1-1.668,0,1.587,1.587,0,0,1-.555-.5,2.141,2.141,0,0,1-.3-.7,3.252,3.252,0,0,1-.1-.788,3.486,3.486,0,0,1,.1-.82,2.211,2.211,0,0,1,.3-.717,1.572,1.572,0,0,1,.555-.509,1.916,1.916,0,0,1,1.668,0,1.589,1.589,0,0,1,.556.509,2.191,2.191,0,0,1,.3.717,3.488,3.488,0,0,1,.1.82,3.254,3.254,0,0,1-.1.788Z" transform="translate(-110.816 -355.241)"/>
      <path id="Trazado_45409" data-name="Trazado 45409" d="M187.856,425.85h1.224v-5.126h1.885v-1H185.97v1h1.886Z" transform="translate(-157.774 -356.081)"/>
      <path id="Trazado_45410" data-name="Trazado 45410" d="M237.555,423.147H240.6v-.917h-3.048v-1.506h3.321v-1H236.33v6.13h4.615v-1.005h-3.39Z" transform="translate(-200.499 -356.081)"/>
      <path id="Trazado_45411" data-name="Trazado 45411" d="M286.815,419.72H285.59v6.13h4.289v-1.005h-3.064Z" transform="translate(-242.29 -356.081)"/>
      <path id="Trazado_45412" data-name="Trazado 45412" d="M333.418,421.852a2.323,2.323,0,0,0-.606-.285c-.2-.061-.367-.1-.482-.126-.4-.1-.716-.183-.96-.247a3.54,3.54,0,0,1-.585-.2.684.684,0,0,1-.311-.241.643.643,0,0,1-.083-.341.679.679,0,0,1,.1-.379.894.894,0,0,1,.247-.243,1,1,0,0,1,.331-.133,2.1,2.1,0,0,1,.838.009,1.214,1.214,0,0,1,.409.159.873.873,0,0,1,.3.32,1.139,1.139,0,0,1,.123.426h1.186a1.8,1.8,0,0,0-.2-.813,1.721,1.721,0,0,0-.535-.606,2.3,2.3,0,0,0-.779-.344,3.572,3.572,0,0,0-1.753,0,2.337,2.337,0,0,0-.732.341,1.819,1.819,0,0,0-.519.57,1.574,1.574,0,0,0-.2.8,1.47,1.47,0,0,0,.152.7,1.486,1.486,0,0,0,.4.481,2.3,2.3,0,0,0,.579.32,6.075,6.075,0,0,0,.678.212c.23.065.455.124.678.176a4.394,4.394,0,0,1,.606.188,1.383,1.383,0,0,1,.455.282.627.627,0,0,1,.187.47.684.684,0,0,1-.141.441.943.943,0,0,1-.335.264,1.454,1.454,0,0,1-.418.126,2.381,2.381,0,0,1-.957-.036,1.432,1.432,0,0,1-.472-.215,1.105,1.105,0,0,1-.328-.384,1.213,1.213,0,0,1-.121-.5H329a1.97,1.97,0,0,0,.2.888,1.891,1.891,0,0,0,.57.669,2.443,2.443,0,0,0,.837.388,3.905,3.905,0,0,0,.989.126,3.807,3.807,0,0,0,1.108-.152,2.336,2.336,0,0,0,.793-.4,1.679,1.679,0,0,0,.475-.606,1.851,1.851,0,0,0,.161-.769,1.468,1.468,0,0,0-.212-.823A1.833,1.833,0,0,0,333.418,421.852Z" transform="translate(-279.117 -355.215)"/>
      <path id="Trazado_45413" data-name="Trazado 45413" d="M411.008,423.992a2.689,2.689,0,0,0,.4-.71,3.179,3.179,0,0,0,.179-.713h-.926c-.018.109-.042.218-.071.324a1.781,1.781,0,0,1-.152.382l-.058.1-.945-1.16.085-.044a2.677,2.677,0,0,0,.775-.617,1.322,1.322,0,0,0,.3-.882,1.4,1.4,0,0,0-.129-.617,1.277,1.277,0,0,0-.349-.444,1.535,1.535,0,0,0-.519-.271,2.188,2.188,0,0,0-.65-.094,1.82,1.82,0,0,0-.587.1,1.575,1.575,0,0,0-.5.277,1.338,1.338,0,0,0-.346.429,1.191,1.191,0,0,0-.129.553,1.386,1.386,0,0,0,.162.684,4.138,4.138,0,0,0,.418.607l.065.077-.091.044a3.8,3.8,0,0,0-.519.3,2.4,2.4,0,0,0-.438.388,1.67,1.67,0,0,0-.3.479,1.5,1.5,0,0,0-.109.582,1.838,1.838,0,0,0,.152.758,1.669,1.669,0,0,0,.412.564,1.73,1.73,0,0,0,.619.349,2.44,2.44,0,0,0,.773.12,2.334,2.334,0,0,0,.932-.177,2.613,2.613,0,0,0,.782-.54l.062-.061.541.664h1.324l-1.213-1.409Zm-2.449-3.889a.647.647,0,0,1,.455-.174.619.619,0,0,1,.455.2.661.661,0,0,1,.194.478.816.816,0,0,1-.212.593,2.609,2.609,0,0,1-.467.371l-.061.038-.044-.055c-.117-.152-.229-.293-.335-.434a.9.9,0,0,1-.174-.558A.607.607,0,0,1,408.559,420.1Zm1.142,4.017a2.208,2.208,0,0,1-.488.415,1.17,1.17,0,0,1-.626.165,1,1,0,0,1-.37-.071,1.041,1.041,0,0,1-.3-.191.893.893,0,0,1-.217-.288.806.806,0,0,1-.083-.355.9.9,0,0,1,.083-.387,1.2,1.2,0,0,1,.211-.311,1.412,1.412,0,0,1,.3-.243,2.525,2.525,0,0,1,.337-.173l.055-.023,1.154,1.41Z" transform="translate(-344.934 -355.682)"/>
      <path id="Trazado_45414" data-name="Trazado 45414" d="M492.933,425.254q-.023-.214-.032-.418c0-.135-.012-.252-.017-.352a3.806,3.806,0,0,0-.065-.464,1.533,1.533,0,0,0-.152-.415,1.092,1.092,0,0,0-.255-.32.984.984,0,0,0-.391-.2l-.059-.015v-.114l.05-.038a1.4,1.4,0,0,0,.723-.582,1.829,1.829,0,0,0,.223-.92,1.68,1.68,0,0,0-.123-.644,1.566,1.566,0,0,0-.352-.525,1.7,1.7,0,0,0-.555-.356,1.973,1.973,0,0,0-.732-.13H487.89v6.13h1.23v-2.464h1.462a1.109,1.109,0,0,1,.8.252,1.333,1.333,0,0,1,.321.767c.035.253.062.522.08.8a2.455,2.455,0,0,0,.117.64h1.187a1.211,1.211,0,0,1-.082-.223A3.1,3.1,0,0,1,492.933,425.254Zm-1.459-2.881a1.13,1.13,0,0,1-.767.232H489.12v-1.936h1.592a1.141,1.141,0,0,1,.758.226.919.919,0,0,1,.265.725A.974.974,0,0,1,491.474,422.373Z" transform="translate(-413.916 -356.114)"/>
      <path id="Trazado_45415" data-name="Trazado 45415" d="M542.665,423.147h3.046v-.917h-3.046v-1.506h3.319v-1H541.44v6.13h4.615v-1.005h-3.39Z" transform="translate(-459.347 -356.081)"/>
      <path id="Trazado_45416" data-name="Trazado 45416" d="M592.483,421.849a2.3,2.3,0,0,0-.6-.285c-.2-.059-.367-.1-.482-.126-.4-.1-.717-.184-.96-.247a3.62,3.62,0,0,1-.587-.2.713.713,0,0,1-.311-.241.643.643,0,0,1-.082-.341.667.667,0,0,1,.1-.379.839.839,0,0,1,.247-.243.981.981,0,0,1,.331-.133,2.063,2.063,0,0,1,.837.009,1.215,1.215,0,0,1,.409.159.847.847,0,0,1,.3.32,1.137,1.137,0,0,1,.123.426h1.186a1.805,1.805,0,0,0-.2-.813,1.738,1.738,0,0,0-.535-.606,2.315,2.315,0,0,0-.779-.344,3.556,3.556,0,0,0-1.753,0,2.323,2.323,0,0,0-.732.341,1.8,1.8,0,0,0-.518.57,1.574,1.574,0,0,0-.2.8,1.4,1.4,0,0,0,.56,1.18,2.275,2.275,0,0,0,.579.32,5.97,5.97,0,0,0,.678.212c.229.065.455.124.676.176a4.425,4.425,0,0,1,.607.188,1.379,1.379,0,0,1,.455.282.628.628,0,0,1,.188.47.693.693,0,0,1-.141.441.948.948,0,0,1-.337.264,1.428,1.428,0,0,1-.419.126,2.369,2.369,0,0,1-.955-.036,1.417,1.417,0,0,1-.471-.215,1.088,1.088,0,0,1-.328-.384,1.169,1.169,0,0,1-.121-.5h-1.183a1.944,1.944,0,0,0,.2.889,1.908,1.908,0,0,0,.572.669,2.447,2.447,0,0,0,.835.388,3.914,3.914,0,0,0,.989.126,3.828,3.828,0,0,0,1.11-.152,2.341,2.341,0,0,0,.791-.4,1.68,1.68,0,0,0,.476-.607,1.852,1.852,0,0,0,.159-.769,1.468,1.468,0,0,0-.211-.823A1.82,1.82,0,0,0,592.483,421.849Z" transform="translate(-498.906 -355.212)"/>
      <rect id="Rectángulo_4923" data-name="Rectángulo 4923" width="1.225" height="6.13" transform="translate(97.037 63.639)"/>
      <path id="Trazado_45417" data-name="Trazado 45417" d="M673.367,420.47a2.391,2.391,0,0,0-.879-.563,3.186,3.186,0,0,0-1.1-.188H668.75v6.13h2.634a2.939,2.939,0,0,0,1.222-.235,2.427,2.427,0,0,0,.863-.644,2.737,2.737,0,0,0,.517-.977,4.267,4.267,0,0,0,.173-1.245,3.858,3.858,0,0,0-.211-1.337A2.648,2.648,0,0,0,673.367,420.47Zm-.57,3.319a1.7,1.7,0,0,1-.37.607,1.346,1.346,0,0,1-.532.341,1.874,1.874,0,0,1-.606.1h-1.312v-4.115h1.061a2.33,2.33,0,0,1,.889.152,1.422,1.422,0,0,1,.591.443,1.808,1.808,0,0,1,.318.687,3.8,3.8,0,0,1,.094.876A2.661,2.661,0,0,1,672.8,423.789Z" transform="translate(-567.354 -356.08)"/>
      <path id="Trazado_45418" data-name="Trazado 45418" d="M724.635,423.147h3.048v-.917h-3.048v-1.506h3.32v-1H723.41v6.13h4.615v-1.005h-3.39Z" transform="translate(-613.726 -356.081)"/>
      <path id="Trazado_45419" data-name="Trazado 45419" d="M772.66,419.72v6.13H773.8V421.64h.123l.041.038,2.593,4.173h1.258v-6.13h-1.136v4.218h-.123l-.041-.038-2.6-4.18Z" transform="translate(-655.508 -356.081)"/>
      <path id="Trazado_45420" data-name="Trazado 45420" d="M827.666,423.964a1.6,1.6,0,0,1-.555-.5,2.168,2.168,0,0,1-.3-.7,3.333,3.333,0,0,1-.1-.789,3.575,3.575,0,0,1,.1-.82,2.213,2.213,0,0,1,.3-.717,1.572,1.572,0,0,1,.555-.509,1.706,1.706,0,0,1,.831-.19,1.516,1.516,0,0,1,.515.088,1.488,1.488,0,0,1,.441.246,1.449,1.449,0,0,1,.326.368,1.189,1.189,0,0,1,.152.4h1.183a2.441,2.441,0,0,0-.278-.852,2.3,2.3,0,0,0-.584-.685,2.6,2.6,0,0,0-.8-.423,3.3,3.3,0,0,0-2.224.1,2.729,2.729,0,0,0-.946.684,3.114,3.114,0,0,0-.593,1.027,3.891,3.891,0,0,0-.206,1.283,3.741,3.741,0,0,0,.206,1.254,2.972,2.972,0,0,0,.593,1.008,2.677,2.677,0,0,0,.945.672,3.159,3.159,0,0,0,1.268.246,3.03,3.03,0,0,0,1.039-.171,2.386,2.386,0,0,0,.819-.5,2.452,2.452,0,0,0,.564-.785,3.069,3.069,0,0,0,.258-.954h-1.183a1.845,1.845,0,0,1-.455,1,1.365,1.365,0,0,1-1.049.414A1.69,1.69,0,0,1,827.666,423.964Z" transform="translate(-700.319 -355.241)"/>
      <path id="Trazado_45421" data-name="Trazado 45421" d="M883.2,423.147h3.048v-.917H883.2v-1.506h3.321v-1H881.97v6.13h4.615v-1.005H883.2Z" transform="translate(-748.244 -356.081)"/>
      <path id="Trazado_45422" data-name="Trazado 45422" d="M933.534,422.369a1.839,1.839,0,0,0-.511-.52,2.322,2.322,0,0,0-.607-.285c-.2-.059-.365-.1-.482-.126-.4-.1-.716-.183-.96-.247a3.546,3.546,0,0,1-.585-.2.7.7,0,0,1-.3-.241.642.642,0,0,1-.082-.341.679.679,0,0,1,.1-.379.863.863,0,0,1,.249-.243.977.977,0,0,1,.331-.133,2.062,2.062,0,0,1,.837.009,1.212,1.212,0,0,1,.409.159.86.86,0,0,1,.3.32,1.137,1.137,0,0,1,.123.426h1.186a1.8,1.8,0,0,0-.2-.813,1.719,1.719,0,0,0-.534-.607,2.315,2.315,0,0,0-.779-.344,3.56,3.56,0,0,0-1.754,0,2.313,2.313,0,0,0-.731.341,1.8,1.8,0,0,0-.52.57,1.574,1.574,0,0,0-.2.8,1.4,1.4,0,0,0,.56,1.18,2.262,2.262,0,0,0,.578.32,6.077,6.077,0,0,0,.672.212c.229.065.455.124.676.176a4.4,4.4,0,0,1,.607.188,1.386,1.386,0,0,1,.455.282.628.628,0,0,1,.187.47.692.692,0,0,1-.14.441.961.961,0,0,1-.337.264,1.422,1.422,0,0,1-.418.126,2.377,2.377,0,0,1-.957-.036,1.411,1.411,0,0,1-.47-.215,1.073,1.073,0,0,1-.328-.384,1.187,1.187,0,0,1-.123-.5H928.61a1.97,1.97,0,0,0,.2.889,1.907,1.907,0,0,0,.57.669,2.452,2.452,0,0,0,.837.388,3.9,3.9,0,0,0,.989.126,3.814,3.814,0,0,0,1.108-.152,2.337,2.337,0,0,0,.793-.4,1.669,1.669,0,0,0,.475-.607,1.829,1.829,0,0,0,.161-.769A1.481,1.481,0,0,0,933.534,422.369Z" transform="translate(-787.813 -355.212)"/>
      <path id="Trazado_45423" data-name="Trazado 45423" d="M40.386,10.831a6.078,6.078,0,0,1-2.042.558,18.169,18.169,0,0,0-1.971.214c-1.6.475-2.077,1.271-2.87,2.744a32.574,32.574,0,0,0-2.167,5.223c-1.91,5.777-2.945,11.836-4.828,17.625s-4.752,11.458-9.526,15.181c-2.506,1.954-5.7,3.336-8.89,2.791A8.672,8.672,0,0,1,1.3,48.637a8.114,8.114,0,0,1,3.584-8.462A2.059,2.059,0,0,1,6.7,39.834a1.42,1.42,0,0,1,.582,1.942,1.887,1.887,0,0,1-1.971.793,1.771,1.771,0,0,0-1.01-.062,1.2,1.2,0,0,0-.506.555,8.222,8.222,0,0,0-1.271,5.61A6.652,6.652,0,0,0,8.2,53.565a9.353,9.353,0,0,0,7.191-2.47,18.732,18.732,0,0,0,4.388-6.379c2.481-5.389,3.75-11.267,5.4-16.982S28.932,16.287,32.79,11.8A33.782,33.782,0,0,1,20.946,8.254a67.1,67.1,0,0,0-7.1-3.639c-2.491-.92-5.366-1.213-7.655.026A8.268,8.268,0,0,0,2.985,8.011a12.418,12.418,0,0,0-1.342,7.975c.27,1.616,1.11,3.422,2.713,3.791a3.207,3.207,0,0,0,3.263-1.63,9.473,9.473,0,0,0,1.048-3.728c.687-.1.958.9.842,1.586A7.733,7.733,0,0,1,6.16,21.119a3.269,3.269,0,0,1-1.425.578C3.284,21.848,2.08,20.5,1.4,19.19A12.6,12.6,0,0,1,2.062,6.545,12.306,12.306,0,0,1,13.515,1.413c7.267.876,13.078,7.925,20.375,7.96A3.572,3.572,0,0,0,35,9.242a4.6,4.6,0,0,0,1.45-.936,8.489,8.489,0,0,1,3.3-1.848,4,4,0,0,1,3.639.793c2.521,2.353-1.483,3.2-3,3.578m1.456-3.069a2.418,2.418,0,0,1-.567-.049,2.2,2.2,0,0,0-.631.039,7.679,7.679,0,0,0-.9.35c-.422.152-.878.2-1.3.343a1.373,1.373,0,0,0-.946.87.526.526,0,0,0,.167.575.661.661,0,0,0,.238.08,7.312,7.312,0,0,0,3.97-.732,2.123,2.123,0,0,0,.375-.226.684.684,0,0,0,.061-1.028,2.588,2.588,0,0,0-.465-.223" transform="translate(-0.012 -1.128)"/>
      <path id="Trazado_45424" data-name="Trazado 45424" d="M345.03,268.953h.1c2.376-.135,4.461-1.5,6.273-3a3.919,3.919,0,0,1,2.088-1.119,15.617,15.617,0,0,1-10.016,6.626,3.623,3.623,0,0,1-2.426-.173c-1.237-.685-1.443-2.385-1.213-3.756.623-3.687,3.292-6.321,6.268-8.3a2,2,0,0,1,1.243-.455c.852.07,1.325,1.075,1.365,1.929a5.762,5.762,0,0,1-1.268,3.672,14.211,14.211,0,0,1-2.872,2.684c-.446.337-.948.846-.726,1.372A1.186,1.186,0,0,0,345.03,268.953Zm-1.762-1.915a.443.443,0,0,0,.247-.138,15.192,15.192,0,0,0,2.86-3.715,2.192,2.192,0,0,0,.3-.725.837.837,0,0,0-.217-.74,1.071,1.071,0,0,0-1.061-.1,3.891,3.891,0,0,0-1.957,1.621,3.571,3.571,0,0,0-.735,2.629c.055.241.227,1.078.493,1.157A.158.158,0,0,0,343.268,267.038Z" transform="translate(-288.243 -219.535)"/>
      <path id="Trazado_45425" data-name="Trazado 45425" d="M203.893,62.9c-.082-1.384-.65-3.067-2.018-3.283a2.908,2.908,0,0,0-1.771.447c-4.562,2.4-7.766,7.448-9.993,11.959-2.374,4.81-3.942,9.978-5.774,15.024a9.308,9.308,0,0,1-1.213,2.509,9.743,9.743,0,0,1-2.044,1.812,58.065,58.065,0,0,0-6.47,5.637c.967.368,1.936-.341,2.717-.969a29.284,29.284,0,0,1,3.647-2.5c.24-.139.549-.274.787-.112.268.185.217.585.126.887-.632,2.073-1.648,4.027-1.971,6.182-.108.735-.029,1.668.65,2,.829.411,1.65-.429,2.188-1.14a19.372,19.372,0,0,1,6.7-5.571.775.775,0,0,1,.516-.118c.476.111.4.807.23,1.252a10.183,10.183,0,0,0-.643,3.912,2.013,2.013,0,0,0,.5,1.468c.684.622,1.739.188,2.485-.3a37.042,37.042,0,0,0,7.143-6.027c-.519-.258-1.1.079-1.554.4l-4.494,3.193a.8.8,0,0,1-.675.211c-.341-.111-.4-.566-.371-.91a9.76,9.76,0,0,1,1.312-4.192c.391-.664.848-1.56.3-2.147a1.489,1.489,0,0,0-1.346-.3c-2.967.44-4.907,3.324-7.748,4.229a2.427,2.427,0,0,1,.086-1.886,24.018,24.018,0,0,1,4.012-7.278c2.244-2.784,5.139-5.1,6.723-8.317-.737-.13-1.322.522-1.776,1.095a29.479,29.479,0,0,1-4.515,4.574.813.813,0,0,1-.473.233c-.561.012-.6-.845-.414-1.365,2.242-6.344,4.5-12.736,7.909-18.5.855-1.448,2.161-3.032,3.86-2.747a1.322,1.322,0,0,1,.829.426,1.731,1.731,0,0,1,.273.995,14.531,14.531,0,0,1-.5,5.355c-.943,2.881-3.267,5.155-4.009,8.107.579.073,1.034-.422,1.384-.87a30.269,30.269,0,0,0,4.074-6.2,15.684,15.684,0,0,0,1.313-7.119A.156.156,0,0,0,203.893,62.9Z" transform="translate(-148.137 -50.563)"/>
      <path id="Trazado_45426" data-name="Trazado 45426" d="M896.6,260.046a4.724,4.724,0,0,0-1.857-.523,13.674,13.674,0,0,0-8.135,1.747c-.19.109-.455.217-.607.061a.582.582,0,0,1-.1-.464c.055-1.237-.895-2.285-1.7-3.255a1.041,1.041,0,0,1-.274-.5.912.912,0,0,1,.282-.675,4.64,4.64,0,0,1,2.059-1.4.9.9,0,0,0,.5-.284.587.587,0,0,0-.3-.782,1.481,1.481,0,0,0-.925-.048,8.255,8.255,0,0,0-2.378.823,4.787,4.787,0,0,0-1.886,1.641,2.714,2.714,0,0,0-.267,2.446,44.3,44.3,0,0,0-4.763,3.542,11.491,11.491,0,0,1-5.317,2.534c-.625.082-1.459-.067-1.586-.69-.1-.5.35-.91.758-1.213a14.268,14.268,0,0,0,2.881-2.67,5.786,5.786,0,0,0,1.286-3.663c-.036-.917-.607-2.017-1.525-1.971a1.933,1.933,0,0,0-.9.359c-3.28,2.044-6.409,5.24-6.506,9.364a3.057,3.057,0,0,0,.917,2.562,3.246,3.246,0,0,0,2.315.42,12.082,12.082,0,0,0,4.888-1.484c2.928-1.7,4.964-4.893,8.253-5.762a4.8,4.8,0,0,1,1.1,2.526,1.292,1.292,0,0,1-.062.69,1.527,1.527,0,0,1-.735.617,16.8,16.8,0,0,0-3.4,2.417c-.594.547-1.184,1.412-.737,2.111a1.6,1.6,0,0,0,1.074.607,5.083,5.083,0,0,0,4.161-1.172,9.2,9.2,0,0,0,2.506-3.6,8.809,8.809,0,0,1,.758-1.575,5.339,5.339,0,0,1,3.135-1.994,10.473,10.473,0,0,1,6.975.572c.358.161.91.261,1.007-.111a.567.567,0,0,0-.08-.394A2.043,2.043,0,0,0,896.6,260.046Zm-27.97,2.814a.93.93,0,0,1-.152-.261,4.1,4.1,0,0,1,2.362-5,1.1,1.1,0,0,1,1.148.052.853.853,0,0,1,.224.769,2.275,2.275,0,0,1-.317.751,14.48,14.48,0,0,1-3.013,3.812A.316.316,0,0,1,868.63,262.86Zm14.507,3.807a1.873,1.873,0,0,1-.152.24,3.057,3.057,0,0,1-1.7.987,1.015,1.015,0,0,1-.537-.071.9.9,0,0,1-.479-.587c-.2-.74.455-.987.781-1.516a1.617,1.617,0,0,1,.238-.332,1.136,1.136,0,0,1,.411-.221,5.474,5.474,0,0,1,.793-.217.919.919,0,0,1,.858.152c.246.264.141.678.02,1.01A4.6,4.6,0,0,1,883.138,266.667Z" transform="translate(-734.134 -215.379)"/>
      <path id="Trazado_45427" data-name="Trazado 45427" d="M668.315,261.047a.9.9,0,0,0-.368.064,7.5,7.5,0,0,1-1.45.523,1.385,1.385,0,0,1-1.4-.5,1.76,1.76,0,0,1,.3-1.827,2.375,2.375,0,0,0,.588-1.8c-.241-.879-1.422-1.125-2.293-.9a1.668,1.668,0,0,0-1.18.852,2.564,2.564,0,0,0-.085,1.089,6.312,6.312,0,0,1-5.187,6.294c-.328.052-.773,0-.851-.326a.693.693,0,0,1,.07-.409l2.238-5.651a2.213,2.213,0,0,0,.126-1.941c-.5-.817-1.713-.678-2.59-.344-4.336,1.648-7.543,5.278-11.514,7.649a1.492,1.492,0,0,1-1.3.281c-.66-.277-.649-1.2-.5-1.894a29.986,29.986,0,0,1,2.25-6.864,1.07,1.07,0,0,0,.151-.8c-.182-.541-.972-.478-1.48-.244a14.125,14.125,0,0,0-2.5,1.591c-1.506,1.1-2.99,2.232-4.47,3.366q-1.122.86-2.233,1.73c-.318.25-1.556.887-.958,1.46a.365.365,0,0,0,.162.1,1.048,1.048,0,0,0,.846-.315,67.892,67.892,0,0,1,6.323-4.329c-.038,3.1-2.331,5.762-2.44,8.856a.985.985,0,0,0,.094.54,1.03,1.03,0,0,0,.952.344c2.6-.108,4.829-1.736,6.761-3.43s3.836-3.571,6.3-4.359a2.335,2.335,0,0,1,1.09-.141,1.023,1.023,0,0,1,.835.666,1.537,1.537,0,0,1-.112.893,22.028,22.028,0,0,0-.9,3.871,2.332,2.332,0,0,0,.431,2.085,2.254,2.254,0,0,0,2.227.136,14.1,14.1,0,0,0,6.354-4.342,1.27,1.27,0,0,1,.564-.472,1.637,1.637,0,0,1,1.081.246,3.61,3.61,0,0,0,4.235-1.125.467.467,0,0,0,.112-.455A.3.3,0,0,0,668.315,261.047Z" transform="translate(-537.465 -215.592)"/>
      <path id="Trazado_45428" data-name="Trazado 45428" d="M496.392,18.479a38.193,38.193,0,0,1,1.4-3.659,4.87,4.87,0,0,0,.426-.264h0a17.025,17.025,0,0,1,1.445-1.043c6.853-4.493,15.579-6.885,23.585-4.44-.1-.03-.314-.42-.4-.509a3.718,3.718,0,0,0-.543-.47,3.875,3.875,0,0,0-1.3-.606,7.4,7.4,0,0,0-1.427-.082c-.466-.03-.948-.165-1.415-.229a10.331,10.331,0,0,0-2.4-.353H515.7c-1.516-.044-1.873-.03-2.176-.08a1.345,1.345,0,0,1-.212-.029,15.448,15.448,0,0,0-3.874.177,7.413,7.413,0,0,1-1.354.217,41.041,41.041,0,0,0-4.4.776,13.413,13.413,0,0,0-2.957,1.134c-1.95.91-3.791,2.045-5.687,3.043-2.943,1.54-6.267,2.781-9.592,2.189a14.277,14.277,0,0,1-5.228-2.288c-2.972-1.948-5.762-4.822-6.023-8.326a2.09,2.09,0,0,1,.455-1.706,1.86,1.86,0,0,1,1-.415c2.578-.382,4.946,1.636,6.5,3.775.138.19.314.4.546.393.476-.021.343-.772.045-1.152A12.627,12.627,0,0,0,476.6.274a3.8,3.8,0,0,0-2.37-.133c-1.3.469-1.829,2.065-1.72,3.462a9.918,9.918,0,0,0,2.426,5.269,20.076,20.076,0,0,0,19.49,6.861,54.682,54.682,0,0,0-4.212,10.917c-.91,3.173-1.71,6.394-2.663,9.552a12.688,12.688,0,0,1-7.43-4.094,15.525,15.525,0,0,0,6.872,5.877,51.613,51.613,0,0,1-2.174,5.65,18.787,18.787,0,0,1-4.386,6.379,9.331,9.331,0,0,1-7.193,2.47,6.638,6.638,0,0,1-5.663-4.894,8.2,8.2,0,0,1,1.271-5.61,1.189,1.189,0,0,1,.506-.555,1.8,1.8,0,0,1,1.01.061,1.882,1.882,0,0,0,1.971-.791,1.418,1.418,0,0,0-.584-1.942,2.07,2.07,0,0,0-1.819.341,8.111,8.111,0,0,0-3.583,8.462,8.671,8.671,0,0,0,6.793,6.529c3.184.55,6.382-.835,8.888-2.79,3.906-3.045,6.535-7.393,8.394-12.04h.009a.5.5,0,0,1,.011-.052c.121-.3.241-.606.355-.91a4.347,4.347,0,0,0,3.3-1.154c.954-.8,1.7-1.81,2.611-2.656a10.207,10.207,0,0,1,5.1-2.553c-1.783-.863-3.865.07-5.4,1.237s-2.961,2.611-4.852,2.976a.12.12,0,0,1,.008-.024C493.442,30.316,494.48,24.261,496.392,18.479Z" transform="translate(-395.495 -0.001)"/>
      <path id="Trazado_45429" data-name="Trazado 45429" d="M717.6,192.481a5.542,5.542,0,0,1-.223.578,4.877,4.877,0,0,1-1.16,1.657,4.746,4.746,0,0,1-2.077,1.193,1.8,1.8,0,0,1-1.127-.017.879.879,0,0,1-.564-.9,1.364,1.364,0,0,1,.353-.606l2.247-2.658a1.1,1.1,0,0,1,.981-.508,1.3,1.3,0,0,1,.426.012,1.279,1.279,0,0,1,.417.229c.2.152.691.373.758.606A.822.822,0,0,1,717.6,192.481Z" transform="translate(-604.415 -162.218)"/>
    </g>
    <g id="Grupo_35948" data-name="Grupo 35948" transform="translate(-2252.832 -3901.683)">
      <path id="Trazado_45524" data-name="Trazado 45524" d="M39.909-10.38c-.11,2.1,1.171,4.072,4.615,4.953L47.9-4.47c2.761.829,3.514,1.955,3.514,3.679C51.282,1.4,50.676,3,46.511,3.1A5.1,5.1,0,0,1,41.1-.912H39.095c.421,3.521,2.988,5.769,7.333,5.821s7.106-2.383,7.106-5.794A5.51,5.51,0,0,0,53.148-2.9c-.453-1.443-2.226-2.743-4.782-3.464L45.8-7.074c-2.885-.776-3.9-1.674-3.9-3.306.1-2.646,2.132-3.263,4.56-3.263a4.457,4.457,0,0,1,4.688,3.6h2c-.413-3.136-2.949-5.458-6.686-5.458S40.025-13.7,39.909-10.38Z" transform="translate(6290.408 -1568.358)"/>
      <path id="Trazado_45525" data-name="Trazado 45525" d="M7.966,3.2A4.047,4.047,0,0,1,3.775-.979c0-2.252,1.389-3.867,4.957-4.264l5.788-.1.038,2.287C14.016,2.23,11.4,3.2,7.966,3.2Zm0,1.817c4.062-.04,5.283-1.35,6.592-3.4l.1,1.583.217,1.337h1.858L16.464-.94l.014-8.112c.181-3.915-2.119-6.338-6.625-6.338-6.991-.19-7.22,5.414-7.22,5.414H4.566c.6-1.615.8-3.5,5.287-3.6,3.117,0,4.705,1.767,4.705,4.586v1.94l-5.826.083C4.3-6.654,1.651-4.405,1.708-.877,1.708,2.657,4.208,5.02,7.966,5.02Z" transform="translate(6293.499 -1568.468)"/>
      <path id="Trazado_45526" data-name="Trazado 45526" d="M18.465,6.96h2l-.056-28.705h-2Z" transform="translate(6295 -1570.853)"/>
      <path id="Trazado_45527" data-name="Trazado 45527" d="M18.465,29.384h2l-.056-51.129h-2Z" transform="translate(6299 -1570.853)"/>
      <path id="Trazado_45528" data-name="Trazado 45528" d="M62.591-13.616c3.587.069,5.928,2.762,5.98,6.834H56.4C56.61-10.854,58.891-13.609,62.591-13.616ZM67.758.009c-1.061,2.43-2.631,3.036-5.29,3.036-3.4-.02-5.956-2.669-6.186-8.052H70.527l.109-.721c0-6.035-3.058-9.776-8.045-9.776-5.091,0-8.358,4.017-8.358,10.217,0,6.236,3.032,10.118,8.375,10.2,3.927,0,5.595-1.647,7.232-4.9Z" transform="translate(6289.979 -1568.358)"/>
      <path id="Trazado_45529" data-name="Trazado 45529" d="M71.662,4.56h1.991L73.624-6.873c.715-4.256,2.653-6.549,6.12-6.549,3.21,0,4.866,1.939,4.866,5.682l.044,12.3h1.969L86.6-8.177c0-4.583-2.412-7.158-6.532-7.158-2.935,0-5.221,1.172-6.2,3.6l-.247.526-.086-3.68H71.6Z" transform="translate(6251.391 -1545.957)"/>
      <path id="Trazado_45530" data-name="Trazado 45530" d="M71.662-.44h1.988L73.62-6.847c.56-4.229,2.648-6.575,6.109-6.575,3.2,0,4.858,1.939,4.858,5.682l.044,16.3H86.6L86.576-8.177c0-4.583-2.408-7.158-6.521-7.158-2.93,0-5.211,1.172-6.188,3.6l-.247.526-.086-3.68H71.6Z" transform="translate(6290.803 -1568.528)"/>
      <path id="Trazado_45531" data-name="Trazado 45531" d="M39.909-10.38c-.11,2.1,1.171,4.072,4.615,4.953L47.9-4.47c2.761.829,3.514,1.955,3.514,3.679C51.282,1.4,50.676,3,46.511,3.1A5.1,5.1,0,0,1,41.1-.912H39.095c.421,3.521,2.988,5.769,7.333,5.821s7.106-2.383,7.106-5.794A5.51,5.51,0,0,0,53.148-2.9c-.453-1.443-2.226-2.743-4.782-3.464L45.8-7.074c-2.885-.776-3.9-1.674-3.9-3.306.1-2.646,2.132-3.263,4.56-3.263a4.457,4.457,0,0,1,4.688,3.6h2c-.413-3.136-2.949-5.458-6.686-5.458S40.025-13.7,39.909-10.38Z" transform="translate(6340.095 -1568.358)"/>
      <path id="Trazado_45532" data-name="Trazado 45532" d="M62.591-13.616c3.587.069,5.928,2.762,5.98,6.834H56.4C56.61-10.854,58.891-13.609,62.591-13.616ZM67.758.009c-1.061,2.43-2.631,3.036-5.29,3.036-3.4-.02-5.956-2.669-6.186-8.052H70.527l.109-.721c0-6.035-3.058-9.776-8.045-9.776-5.091,0-8.358,4.017-8.358,10.217,0,6.236,3.032,10.118,8.375,10.2,3.927,0,5.595-1.647,7.232-4.9Z" transform="translate(6339.667 -1568.358)"/>
      <path id="Trazado_45533" data-name="Trazado 45533" d="M39.909-10.38c-.11,2.1,1.171,4.072,4.615,4.953L47.9-4.47c2.761.829,3.514,1.955,3.514,3.679C51.282,1.4,50.676,3,46.511,3.1A5.1,5.1,0,0,1,41.1-.912H39.095c.421,3.521,2.988,5.769,7.333,5.821s7.106-2.383,7.106-5.794A5.51,5.51,0,0,0,53.148-2.9c-.453-1.443-2.226-2.743-4.782-3.464L45.8-7.074c-2.885-.776-3.9-1.674-3.9-3.306.1-2.646,2.132-3.263,4.56-3.263a4.457,4.457,0,0,1,4.688,3.6h2c-.413-3.136-2.949-5.458-6.686-5.458S40.025-13.7,39.909-10.38Z" transform="translate(6371.095 -1568.358)"/>
      <path id="Trazado_45540" data-name="Trazado 45540" d="M63.989-13.335H61.8l-.04,8.779c-.413,3.694-2.373,5.715-5.749,5.715-3.075,0-4.935-1.323-5.11-5.229l-.046-18.562H48.89l.063,19.063c0,4.128,2.285,6.758,6.724,6.616,2.874,0,5.362-1.383,5.982-3.543h.2l.114,3.059h1.975Z" transform="translate(6313.45 -1543.98)" opacity="0.996"/>
      <path id="Trazado_45534" data-name="Trazado 45534" d="M39.909-10.38c-.11,2.1,1.171,4.072,4.615,4.953L47.9-4.47c2.761.829,3.514,1.955,3.514,3.679C51.282,1.4,50.676,3,46.511,3.1A5.1,5.1,0,0,1,41.1-.912H39.095c.421,3.521,2.988,5.769,7.333,5.821s7.106-2.383,7.106-5.794A5.51,5.51,0,0,0,53.148-2.9c-.453-1.443-2.226-2.743-4.782-3.464L45.8-7.074c-2.885-.776-3.9-1.674-3.9-3.306.1-2.646,2.132-3.263,4.56-3.263a4.457,4.457,0,0,1,4.688,3.6h2c-.413-3.136-2.949-5.458-6.686-5.458S40.025-13.7,39.909-10.38Z" transform="translate(6339.095 -1546.047)"/>
      <path id="Trazado_45535" data-name="Trazado 45535" d="M62.591-13.616c3.587.069,5.928,2.762,5.98,6.834H56.4C56.61-10.854,58.891-13.609,62.591-13.616ZM67.758.009c-1.061,2.43-2.631,3.036-5.29,3.036-3.4-.02-5.956-2.669-6.186-8.052H70.527l.109-.721c0-6.035-3.058-9.776-8.045-9.776-5.091,0-8.358,4.017-8.358,10.217,0,6.236,3.032,10.118,8.375,10.2,3.927,0,5.595-1.647,7.232-4.9Z" transform="translate(6359.667 -1545.787)"/>
      <path id="Trazado_45536" data-name="Trazado 45536" d="M18.465-1.59h2l-.056-20.155h-2Z" transform="translate(6376.491 -1539.547)"/>
      <path id="Trazado_45537" data-name="Trazado 45537" d="M41.44-9.271c-.778-4.1-3.281-6.235-7.552-6.235-4.732.019-8.348,3.94-8.348,10.088,0,6.239,3.213,10.272,8.348,10.272,4.253,0,6.416-2.377,7.549-6.208H39.4a5.434,5.434,0,0,1-5.509,4.378c-4.039-.016-6.257-3.535-6.257-8.442,0-4.852,2.556-8.213,6.257-8.213a5.253,5.253,0,0,1,5.537,4.36Z" transform="translate(6314.317 -1545.787)"/>
      <path id="Trazado_45538" data-name="Trazado 45538" d="M18.493,5.18h2.094L20.5-21.745H18.409Z" transform="translate(6339.291 -1546.554)"/>
      <path id="Trazado_45539" data-name="Trazado 45539" d="M86.83-15.25,94.037,4.057h2.51l7.207-19.308h-2.528L95.4,1.494h-.215L89.34-15.25Z" transform="translate(6310.917 -1545.527)"/>
      <path id="Trazado_45541" data-name="Trazado 45541" d="M104.769-16.949a1.98,1.98,0,0,0,1.995-1.995,1.978,1.978,0,0,0-1.995-2,1.981,1.981,0,0,0-1.995,2A1.982,1.982,0,0,0,104.769-16.949Zm0-.325a1.657,1.657,0,0,1-1.67-1.67,1.656,1.656,0,0,1,1.67-1.673,1.654,1.654,0,0,1,1.67,1.673A1.655,1.655,0,0,1,104.769-17.274Zm-.438-.717v-.755h.445l.535.755h.38l-.562-.8a.56.56,0,0,0,.473-.589.622.622,0,0,0-.682-.608h-.9v1.995Zm0-1.712h.511c.275,0,.418.124.418.337s-.136.353-.426.353h-.5Z" transform="translate(6323.365 -1562.92)"/>
    </g>
  </g>
</svg>
