<svg xmlns="http://www.w3.org/2000/svg" xmlns:xlink="http://www.w3.org/1999/xlink" width="273" height="229" viewBox="0 0 273 229"><defs><linearGradient id="a" x1="499.939" y1="-3.524" x2="494.202" y2="3.756" gradientUnits="objectBoundingBox"><stop offset="0" stop-color="#141c40"/><stop offset="1" stop-color="#0f2568"/></linearGradient><clipPath id="c"><rect width="273" height="229"/></clipPath></defs><g id="b" clip-path="url(#c)"><g transform="translate(9.767 15.115)"><text transform="translate(123.54 130.764)" fill="#db0c17" font-size="10" font-family="SegoeUI, Segoe UI"><tspan x="0" y="0">CSS</tspan></text><text transform="translate(60.657 82.453)" fill="#040405" font-size="10" font-family="SegoeUI, Segoe UI"><tspan x="0" y="0">php</tspan></text><g transform="translate(38.074)"><path d="M914.709,420.787l-8.344-8.344,8.344-8.344,8.344,8.344Zm-6.1-8.344,6.1,6.1,6.1-6.1-6.1-6.1Z" transform="translate(-906.365 -404.1)" fill="#040506"/></g><rect width="4.875" height="4.875" transform="translate(56.127 1.043) rotate(45)" fill="#db0c17"/><g transform="translate(241.09 168.903)"><path d="M2966.457,2127.768l-8.344-8.344,8.344-8.343,8.344,8.343Zm-6.105-8.344,6.105,6.1,6.105-6.1-6.105-6.1Z" transform="translate(-2958.113 -2111.081)" fill="#040506"/></g><rect width="4.875" height="4.875" transform="translate(240.131 178.211) rotate(45)" fill="#db0c17"/><rect width="4.875" height="4.875" transform="translate(171.085 28.802) rotate(45)" fill="#db0c17"/><rect width="4.875" height="4.875" transform="translate(11.805 98.779) rotate(45)" fill="#db0c17"/><g transform="translate(29.338 163.763)"><rect width="207.345" height="10.057" rx="5.029" fill="#161615"/></g><g transform="translate(33.401 41.709)"><path d="M1059.212,949.135H859.146V825.628h200.067ZM861.62,946.661h195.119V828.1H861.62Z" transform="translate(-859.146 -825.628)" fill="#161615"/></g><g transform="translate(44.909 53.494)"><rect width="119.537" height="8.235" rx="4.118" transform="translate(0.346 0.346)" fill="#fff"/><path d="M1090.865,953.659H979.91a4.464,4.464,0,0,1,0-8.928h110.955a4.464,4.464,0,0,1,0,8.928ZM979.91,945.424a3.771,3.771,0,0,0,0,7.543h110.955a3.771,3.771,0,0,0,0-7.543Z" transform="translate(-975.446 -944.731)" fill="#161615"/></g><g transform="translate(156.257 55.419)"><path d="M2102.7,967.664a1.55,1.55,0,1,1,1.55-1.549,1.551,1.551,0,0,1-1.55,1.549Zm2.321.5-.821-.824a1.939,1.939,0,1,0-.274.274l.822.824Z" transform="translate(-2100.767 -964.178)" fill="#db0c17" fill-rule="evenodd"/></g><g transform="translate(44.86 51.418)" opacity="0.3"><path d="M1149.864,1029.529H974.946V923.745h174.918Zm-174.82-.1h174.72V923.844H975.045Z" transform="translate(-974.946 -923.745)" fill="#040506"/></g><g transform="translate(44.464 66.932)"><path d="M1037.8,1114.947H970.946v-34.409H1037.8Zm-65.961-.89h65.07v-32.628h-65.07Z" transform="translate(-970.946 -1080.538)" fill="#040506"/></g><g transform="translate(44.464 103.864)"><path d="M1037.8,1507.518H970.946v-53.733H1037.8Zm-65.961-.89h65.07v-51.952h-65.07Z" transform="translate(-970.946 -1453.785)" fill="#040506"/></g><g transform="translate(114.193 66.932)"><path d="M1726.692,1114.947h-51.044v-34.409h51.044Zm-50.154-.89H1725.8v-32.628h-49.263Z" transform="translate(-1675.648 -1080.538)" fill="#040506"/></g><g transform="translate(113.833 103.864)"><path d="M1723.058,1507.518h-51.044v-53.733h51.044Zm-50.154-.89h49.263v-51.952H1672.9Z" transform="translate(-1672.014 -1453.785)" fill="#040506"/></g><g transform="translate(167.176 53.908)"><path d="M2262.162,1051.15h-51.045V948.915h51.045Zm-50.154-.89h49.263V949.805h-49.263Z" transform="translate(-2211.117 -948.915)" fill="#040506"/></g><g transform="translate(69.198 10.814)"><g transform="translate(46.105)"><path d="M1713.844,519.621a.231.231,0,0,0-.24-.12l-2.78.438a12.257,12.257,0,0,0-3.063-2.529l-.1-2.811a.232.232,0,0,0-.163-.213l-3.228-.989a.231.231,0,0,0-.255.085l-1.655,2.274a12.263,12.263,0,0,0-3.953.38l-2.058-1.919a.231.231,0,0,0-.266-.035l-2.981,1.583a.231.231,0,0,0-.12.24l.437,2.78a12.246,12.246,0,0,0-2.529,3.063l-2.811.1a.231.231,0,0,0-.213.163l-.989,3.228a.231.231,0,0,0,.085.255l2.274,1.655a12.265,12.265,0,0,0,.38,3.954l-1.919,2.058a.231.231,0,0,0-.035.266l1.583,2.981a.231.231,0,0,0,.24.12l2.78-.437a12.261,12.261,0,0,0,3.062,2.529l.1,2.811a.232.232,0,0,0,.163.213l3.228.989a.232.232,0,0,0,.255-.085l1.655-2.274a12.254,12.254,0,0,0,3.953-.38l2.058,1.919a.231.231,0,0,0,.266.035l2.981-1.583a.232.232,0,0,0,.12-.24l-.438-2.78a12.249,12.249,0,0,0,2.529-3.062l2.811-.1a.232.232,0,0,0,.213-.163l.989-3.227a.231.231,0,0,0-.085-.255l-2.274-1.655a12.27,12.27,0,0,0-.38-3.953l1.919-2.058a.231.231,0,0,0,.035-.266Z" transform="translate(-1686.87 -513.387)" fill="#040405"/></g><ellipse cx="2.995" cy="2.995" rx="2.995" ry="2.995" transform="translate(57.786 11.681)" fill="#fff"/><g transform="translate(52.246 6.141)"><path d="M1757.468,592.52a8.535,8.535,0,1,1,8.535-8.535A8.544,8.544,0,0,1,1757.468,592.52Zm0-15.586a7.051,7.051,0,1,0,7.051,7.051A7.059,7.059,0,0,0,1757.468,576.934Z" transform="translate(-1748.933 -575.45)" fill="#fff"/></g><g transform="translate(40.578 35.175)"><path d="M1649.565,871.256a.179.179,0,0,0-.2-.033l-1.945.967a9.473,9.473,0,0,0-2.842-1.152l-.724-2.047a.177.177,0,0,0-.169-.119l-2.605.02a.179.179,0,0,0-.168.122l-.692,2.058a9.467,9.467,0,0,0-2.823,1.2l-1.96-.936a.179.179,0,0,0-.2.036l-1.828,1.857a.179.179,0,0,0-.033.2l.967,1.945a9.457,9.457,0,0,0-1.152,2.841l-2.047.724a.178.178,0,0,0-.119.17l.02,2.606a.178.178,0,0,0,.121.167l2.058.692a9.46,9.46,0,0,0,1.2,2.823l-.936,1.96a.178.178,0,0,0,.036.2l1.857,1.828a.178.178,0,0,0,.2.033l1.946-.967a9.463,9.463,0,0,0,2.841,1.152l.724,2.047a.178.178,0,0,0,.17.119l2.605-.02a.179.179,0,0,0,.168-.122l.692-2.058a9.456,9.456,0,0,0,2.823-1.2l1.96.936a.179.179,0,0,0,.2-.036l1.828-1.857a.178.178,0,0,0,.033-.2l-.967-1.945a9.457,9.457,0,0,0,1.152-2.841l2.047-.724a.178.178,0,0,0,.119-.17l-.02-2.606a.179.179,0,0,0-.121-.168l-2.058-.692a9.457,9.457,0,0,0-1.2-2.823l.937-1.96a.178.178,0,0,0-.036-.2Z" transform="translate(-1631.015 -868.872)" fill="#db0c17"/></g><ellipse cx="2.312" cy="2.312" rx="2.312" ry="2.312" transform="translate(49.718 44.314)" fill="#fff"/><g transform="translate(45.568 40.162)"><path d="M1687.9,932.2a6.481,6.481,0,1,1,1.948-.3A6.428,6.428,0,0,1,1687.9,932.2Zm0-12.035a5.571,5.571,0,1,0,5.317,3.9A5.552,5.552,0,0,0,1687.9,920.166Z" transform="translate(-1681.441 -919.273)" fill="#fff"/></g><g transform="translate(0 2.482)"><path d="M1258.435,547.144a.322.322,0,0,0-.334-.167l-3.866.609a17.042,17.042,0,0,0-4.259-3.517l-.136-3.909a.322.322,0,0,0-.227-.3l-4.489-1.375a.322.322,0,0,0-.354.118l-2.3,3.162a17.049,17.049,0,0,0-5.5.528l-2.862-2.67a.322.322,0,0,0-.37-.049l-4.146,2.2a.321.321,0,0,0-.167.334l.609,3.866a17.05,17.05,0,0,0-3.517,4.259l-3.909.136a.322.322,0,0,0-.3.227l-1.375,4.489a.322.322,0,0,0,.119.354l3.162,2.3a17.04,17.04,0,0,0,.529,5.5l-2.67,2.862a.322.322,0,0,0-.049.37l2.2,4.146a.322.322,0,0,0,.334.167l3.866-.609a17.054,17.054,0,0,0,4.259,3.517l.136,3.909a.322.322,0,0,0,.227.3l4.489,1.375a.322.322,0,0,0,.354-.118l2.3-3.162a17.044,17.044,0,0,0,5.5-.529l2.862,2.669a.322.322,0,0,0,.37.049l4.146-2.2a.322.322,0,0,0,.167-.334l-.609-3.866a17.05,17.05,0,0,0,3.517-4.259l3.909-.136a.322.322,0,0,0,.3-.227l1.375-4.489a.322.322,0,0,0-.118-.354l-3.162-2.3a17.037,17.037,0,0,0-.528-5.5l2.669-2.862a.321.321,0,0,0,.049-.37Z" transform="translate(-1220.92 -538.474)" fill="#040405"/></g><ellipse cx="4.165" cy="4.165" rx="4.165" ry="4.165" transform="translate(16.246 18.728)" fill="#fff"/><g transform="translate(8.831 11.313)"><path d="M1321.746,650.88a11.58,11.58,0,1,1,11.58-11.58A11.593,11.593,0,0,1,1321.746,650.88Zm0-21.676a10.1,10.1,0,1,0,10.1,10.1A10.107,10.107,0,0,0,1321.746,629.2Z" transform="translate(-1310.166 -627.72)" fill="#fff"/></g></g><g transform="translate(0 122.779)"><rect width="82.777" height="66.667" rx="33.334" transform="translate(1.237 1.237)" fill="#fff"/><path d="M599.931,1714.086H528.49a6.913,6.913,0,0,1-6.9-6.9V1651.85a6.912,6.912,0,0,1,6.9-6.9h71.441a6.912,6.912,0,0,1,6.9,6.9v55.331A6.913,6.913,0,0,1,599.931,1714.086Zm-71.441-66.667a4.436,4.436,0,0,0-4.431,4.431v55.331a4.436,4.436,0,0,0,4.431,4.431h71.441a4.436,4.436,0,0,0,4.431-4.431V1651.85a4.436,4.436,0,0,0-4.431-4.431Z" transform="translate(-521.585 -1644.945)" fill="#161615"/></g><g transform="translate(24.921 133.043)"><g transform="translate(0.051)"><rect width="25.453" height="33.865" transform="matrix(0.006, -1, 1, 0.006, 0.387, 25.84)" fill="#fff"/><path d="M808.585,1775.085l-34.634-.193.146-26.223,34.634.193Zm-33.859-.959,33.094.185.138-24.683-33.094-.184Z" transform="translate(-773.951 -1748.669)" fill="#161615"/></g><g transform="translate(0 10.085)"><path d="M773.437,1866.345l11.916-15.755,7.272,9.939,5-5.264,9.678,11.269Z" transform="translate(-773.437 -1850.59)" fill="#e03748"/></g><g transform="translate(17.031 5.524)"><path d="M950.889,1807.174a2.666,2.666,0,1,1-2.651-2.681A2.666,2.666,0,0,1,950.889,1807.174Z" transform="translate(-945.556 -1804.493)" fill="#e03748"/></g><g transform="translate(0 10.085)"><path d="M773.437,1866.345l11.916-15.755,7.272,9.939,5-5.264,9.678,11.269Z" transform="translate(-773.437 -1850.59)" fill="#040405"/></g><g transform="translate(17.031 5.524)"><path d="M950.889,1807.174a2.666,2.666,0,1,1-2.651-2.681A2.666,2.666,0,0,1,950.889,1807.174Z" transform="translate(-945.556 -1804.493)" fill="#040405"/></g></g><path d="M834.733,2218.227H813.34c-3.1,0-5.607-1.917-5.607-4.281h0c0-2.365,2.51-4.281,5.607-4.281h21.393c3.1,0,5.607,1.917,5.607,4.281h0C840.341,2216.311,837.83,2218.227,834.733,2218.227Z" transform="translate(-779.419 -2031.008)" fill="#db0c17"/><g transform="translate(8.031 163.682)"><line x2="69.374" transform="translate(0 0.638)" fill="#fff"/><rect width="69.375" height="1.276" fill="#161615"/></g><g transform="translate(8.031 167.672)"><line x2="69.374" transform="translate(0 0.638)" fill="#fff"/><rect width="69.375" height="1.276" fill="#161615"/></g><g transform="translate(20.277 172.521)"><line x2="44.882" transform="translate(0 0.638)" fill="#fff"/><rect width="44.882" height="1.276" fill="#161615"/></g><g transform="translate(12.767 29.974)"><g transform="translate(38.474 6.789)"><path d="M1046.57,783.694l-3.116,8.979s2.026,2.1,6.129,1.021l-.183-5.475Z" transform="translate(-1043.057 -782.897)" fill="#fff"/><path d="M1043.7,787.1a5.82,5.82,0,0,1-4.107-1.438l-.148-.153,3.422-9.863,3.264,5.217.195,5.844-.267.07A9.256,9.256,0,0,1,1043.7,787.1Zm-3.456-1.782c.508.417,2.268,1.584,5.371.856l-.17-5.1-2.4-3.832Z" transform="translate(-1039.444 -775.641)" fill="#161615"/></g><g transform="translate(41.579 1.808)"><path d="M1074.44,730.357a20.037,20.037,0,0,0,.083,4.765c.384,1.461,3.026,5.253,4.589,4.207s.855-6.424.219-8.843S1075.122,728.47,1074.44,730.357Z" transform="translate(-1073.981 -728.458)" fill="#fff"/><path d="M1075.359,736.7a1.86,1.86,0,0,1-.657-.129,6.224,6.224,0,0,1-2.321-2.035,8.388,8.388,0,0,1-1.35-2.481,19.97,19.97,0,0,1-.093-4.884l0-.044.015-.042a3.053,3.053,0,0,1,3.04-1.778,2.57,2.57,0,0,1,2.511,1.936c.424,1.612,1.607,7.9-.361,9.219A1.4,1.4,0,0,1,1075.359,736.7Zm-3.734-9.419a19.24,19.24,0,0,0,.076,4.6c.278,1.056,1.92,3.542,3.247,4.044a.849.849,0,0,0,.815-.037c1.214-.812.863-5.479.077-8.467a1.914,1.914,0,0,0-1.873-1.42A2.4,2.4,0,0,0,1071.624,727.281Z" transform="translate(-1070.824 -725.304)" fill="#161615"/></g><path d="M1058.761,708.566c-1.559-1.981-3.714-1.584-5.67-1.313a25.913,25.913,0,0,1-3.3.266s-1.139,1.047-.851,2.142-1.215.759-1.131,2.152,2.231,4,2.231,4,.2-.4.5-.975c.093.928.439,3.788,1.255,4.953.982,1.4,4.577,2.163,5.378,1.415s-1.065-4.047-1.065-4.047a3.286,3.286,0,0,1-2.39-.12,10.352,10.352,0,0,1-2.175-3.068,1.145,1.145,0,0,1-.049-.966c.363-.907.375-1.654.742-1.751a4.638,4.638,0,0,1,3.526.854C1057.611,713.235,1060.32,710.547,1058.761,708.566Z" transform="translate(-1008.501 -707.027)" fill="#1a1818"/><g transform="translate(40.067 5.197)"><path d="M1060.873,763.98a1.486,1.486,0,0,0-.032-.224c-.082-.387-.371-1.082-1.372-.452-1.335.84.824,2.986,1.213,2.55A13.42,13.42,0,0,0,1060.873,763.98Z" transform="translate(-1058.692 -762.704)" fill="#fff"/><path d="M1057.383,763.1a.781.781,0,0,1-.229-.037,2.833,2.833,0,0,1-1.6-1.984,1.2,1.2,0,0,1,.58-1.227,1.354,1.354,0,0,1,1.253-.234,1.178,1.178,0,0,1,.642.908,1.8,1.8,0,0,1,.038.28v.033c-.1,1.883-.192,1.991-.277,2.087A.534.534,0,0,1,1057.383,763.1Zm-.165-.55h0Zm-.2-2.311a1.09,1.09,0,0,0-.518.2.529.529,0,0,0-.241.659,2.4,2.4,0,0,0,.993,1.261c.043-.327.091-.973.12-1.534a1.376,1.376,0,0,0-.023-.155.569.569,0,0,0-.235-.413A.246.246,0,0,0,1057.018,760.242Z" transform="translate(-1055.539 -759.549)" fill="#161615"/></g><g transform="translate(41.938 21.65)"><g transform="translate(5.618 10.932)"><path d="M1145,1047.5l-2.176,2.146a15.617,15.617,0,0,1-7.3-2.477,17.241,17.241,0,0,1,3.1-5.311A17.911,17.911,0,0,0,1145,1047.5Z" transform="translate(-1135.102 -1041.306)" fill="#fff"/><path d="M1139.073,1045.008l-.161-.015a16.038,16.038,0,0,1-7.458-2.534l-.234-.156.105-.261a17.809,17.809,0,0,1,3.163-5.417l.289-.313.247.348a17.68,17.68,0,0,0,6.24,5.527l.458.209Zm-7-2.971a15.393,15.393,0,0,0,6.743,2.25l1.719-1.695a18.694,18.694,0,0,1-5.82-5.18A17.671,17.671,0,0,0,1132.075,1042.036Z" transform="translate(-1131.22 -1036.311)" fill="#161615"/></g><path d="M1078.2,944.6l5.136-8.03a20.249,20.249,0,0,0,3.633,10.418,17.238,17.238,0,0,0-3.1,5.311A14.129,14.129,0,0,1,1078.2,944.6Z" transform="translate(-1077.825 -935.506)" fill="#fff"/><path d="M1080.653,943.148l-.354-.236a14.349,14.349,0,0,1-5.818-7.907l-.034-.143,5.775-9.03.077,1.037a19.94,19.94,0,0,0,3.57,10.243l.163.229-.191.207a17.143,17.143,0,0,0-3.029,5.205Zm-5.461-8.166a14.011,14.011,0,0,0,5.141,7.112,17.787,17.787,0,0,1,2.812-4.808,20.427,20.427,0,0,1-3.441-9.359Z" transform="translate(-1074.447 -925.833)" fill="#161615"/></g><path d="M985.666,1618.179c2.561.118,5.039.044,6.694-.041a33.588,33.588,0,0,0-7.883-4.335l-1.994-.119a8.122,8.122,0,0,0-.917,3.379C981.9,1617.475,982.863,1618.05,985.666,1618.179Z" transform="translate(-948.82 -1523.972)" fill="#040405"/><path d="M992.064,1648.923l-.021-.015c-1.655.085-4.133.159-6.694.042-2.8-.129-3.769-.7-4.1-1.116-.011.108-.023.216-.032.33a.934.934,0,0,0,.858,1.008c2.1.158,7.3.518,9.8.386A.35.35,0,0,0,992.064,1648.923Z" transform="translate(-948.503 -1554.743)" fill="#040405"/><path d="M791.132,1618.55a19.334,19.334,0,0,0-.721-3.384c-.364-.7-1.612,0-1.612,0a3.312,3.312,0,0,0-1.279,1.089c-.257.434-.968,1.668-1.449,2.507a.566.566,0,0,0-.076.3l5,.175A1,1,0,0,0,791.132,1618.55Z" transform="translate(-772.599 -1525.028)" fill="#040405"/><path d="M786,1657.347a.568.568,0,0,0,.554.553l3.559.1a1,1,0,0,0,.883-.476Z" transform="translate(-772.602 -1563.315)" fill="#040405"/><path d="M811.345,1571.928c-.043.144-.689,3.274-.971,4.647a.784.784,0,0,1-.807.627c-.211-.01-.457-.03-.715-.063a.947.947,0,0,1-.824-.9c-.046-1.2-.068-3.513.373-4.409C809.01,1570.594,811.345,1571.928,811.345,1571.928Z" transform="translate(-792.43 -1485.786)" fill="#040405"/><path d="M986.868,1577.6c.277-.009-.111,1.43.309,2.844a.726.726,0,0,0,.666.573c.215,0,.471,0,.73-.022a.8.8,0,0,0,.74-.724l.341-3.667Z" transform="translate(-953.596 -1490.558)" fill="#040405"/><path d="M832.321,1176.5c-.123.6-4.485,26.045-4.75,39.21a.448.448,0,0,1-.385.436,8.805,8.805,0,0,1-2.678-.018.316.316,0,0,1-.26-.29c-.153-2.454-1.379-23.2.123-32.962,0,0-12.4,26.1-14.283,33.3a.379.379,0,0,1-.387.283,9.359,9.359,0,0,1-2.513-.446.657.657,0,0,1-.414-.772c1.05-4.308,8.412-33.985,13.41-40.524Z" transform="translate(-791.304 -1128.446)" fill="#040405"/><path d="M983.3,1240.38a.163.163,0,0,1-.116-.277l1.661-1.7a.163.163,0,0,1,.233.228l-1.661,1.7A.162.162,0,0,1,983.3,1240.38Z" transform="translate(-950.237 -1185.782)" fill="url(#a)"/><g transform="translate(28.46 13.957)"><path d="M961.7,853.478c-3.186-.834-9.062-2.141-13.741-1.862a2.117,2.117,0,0,0-2,1.988c-.707,12.459-1.672,23.515-3.491,29.948a23.522,23.522,0,0,0,12.138,1.78,134.28,134.28,0,0,0,7.851-22.232s1.313-6.708.038-8.944A1.318,1.318,0,0,0,961.7,853.478Z" transform="translate(-942.05 -851.232)" fill="#fff"/><path d="M948.029,882.728a25.765,25.765,0,0,1-9.5-2.005l-.291-.115.085-.3c1.978-7,2.9-19.641,3.479-29.874a2.465,2.465,0,0,1,2.322-2.314c4.747-.283,10.714,1.052,13.849,1.873h0a1.651,1.651,0,0,1,1.013.841c1.323,2.321.055,8.9,0,9.182l-.005.023a135.278,135.278,0,0,1-7.872,22.29l-.079.169-.185.027A19.364,19.364,0,0,1,948.029,882.728Zm-8.954-2.536a22.933,22.933,0,0,0,11.486,1.673,134.943,134.943,0,0,0,7.748-21.993c.058-.3,1.249-6.637.075-8.7a.978.978,0,0,0-.586-.514c-3.094-.811-8.98-2.13-13.632-1.852a1.773,1.773,0,0,0-1.671,1.662C941.645,865.449,940.587,874.647,939.075,880.192Z" transform="translate(-938.239 -848.08)" fill="#161615"/></g><g transform="translate(0 15.298)"><path d="M755.864,891.242a2.229,2.229,0,0,0-2.771-2.21l-12.164,3.074a2.879,2.879,0,0,1-2.487-.529l-3.6-2.832a1.538,1.538,0,0,1-.571-2.26l1.82-4.2a2.88,2.88,0,0,1,1.937-1.647l12.164-3.074a2.229,2.229,0,0,0,1.388-3.261,2.135,2.135,0,0,0-.943-1.843,16.56,16.56,0,0,0-13.434-2.328,14.867,14.867,0,0,0-11.428,15.587L666.64,897.976q-.21.044-.419.1l-2.1.53c-3.6.909-6.016,3.612-5.4,6.038l.729,2.883h0l.231.914c.613,2.426,4.026,3.654,7.623,2.745l2.1-.53q.208-.052.414-.114l57.815-17.3a14.881,14.881,0,0,0,17.565,8.5,16.56,16.56,0,0,0,10.714-8.432A2.136,2.136,0,0,0,755.864,891.242Zm-92.731,14.3c.017-1.485,1.776-3.062,4.222-3.681s4.743-.066,5.464,1.232c-.017,1.485-1.776,3.062-4.222,3.681S663.854,906.844,663.133,905.545Z" transform="translate(-657.834 -868.818)" fill="#fff"/><path d="M657.722,905.089a8.4,8.4,0,0,1-2.839-.469,4.7,4.7,0,0,1-3.192-3.174l-.96-3.8a4.7,4.7,0,0,1,1.3-4.309,9.363,9.363,0,0,1,4.676-2.69l2.1-.53c.149-.038.3-.073.452-.1l58.484-12.125a15.636,15.636,0,0,1,12.047-15.715,17.374,17.374,0,0,1,14.075,2.442,2.905,2.905,0,0,1,1.286,2.3,3.033,3.033,0,0,1,.054,2.481,2.981,2.981,0,0,1-2.037,1.749L731,874.216a2.1,2.1,0,0,0-1.4,1.195l-1.82,4.2a.846.846,0,0,0,.335,1.324l3.6,2.832a2.1,2.1,0,0,0,1.8.384l12.164-3.074a2.98,2.98,0,0,1,2.623.57,3.033,3.033,0,0,1,1.132,2.208,2.907,2.907,0,0,1-.04,2.631,17.376,17.376,0,0,1-11.224,8.837,15.706,15.706,0,0,1-11.068-1.1,16.272,16.272,0,0,1-7.111-7.216l-57.168,17.105c-.148.044-.3.086-.447.123l-2.1.53A10.46,10.46,0,0,1,657.722,905.089Zm76.413-41.874a16.155,16.155,0,0,0-3.96.494,14.159,14.159,0,0,0-8.242,5.513,14.523,14.523,0,0,0-2.59,9.265l.036.679-59.8,12.4c-.129.027-.258.056-.385.089l-2.1.53c-3.115.787-5.326,3.112-4.83,5.077l.96,3.8c.5,1.965,3.548,2.959,6.662,2.172l2.1-.53c.127-.032.255-.067.382-.105l58.476-17.5.287.627a14.081,14.081,0,0,0,12.917,8.538,15.215,15.215,0,0,0,3.733-.473,15.792,15.792,0,0,0,10.2-8.027,1.341,1.341,0,0,0-.029-1.315l-.112-.2.007-.225a1.43,1.43,0,0,0-.544-1.148,1.394,1.394,0,0,0-1.242-.268L733.9,885.687a3.693,3.693,0,0,1-3.17-.675l-3.6-2.832a3.641,3.641,0,0,1-1.026-1.274l-.073-.149-.007-.166a3.64,3.64,0,0,1,.3-1.608l1.82-4.2a3.693,3.693,0,0,1,2.469-2.1l12.164-3.075a1.4,1.4,0,0,0,.965-.826,1.43,1.43,0,0,0-.067-1.268l-.113-.194.006-.225a1.341,1.341,0,0,0-.6-1.17A15.625,15.625,0,0,0,734.136,863.215Zm-74.762,37.427c-1.9,0-3.48-.682-4.156-1.9l-.1-.184,0-.21c.022-1.9,2-3.727,4.82-4.439s5.427-.047,6.35,1.616l.1.184,0,.21c-.022,1.872-2.049,3.739-4.82,4.439A8.991,8.991,0,0,1,659.373,900.642Zm-2.649-2.489c.621.759,2.362,1.2,4.456.671s3.417-1.745,3.6-2.708c-.621-.759-2.361-1.2-4.456-.671S656.91,897.19,656.724,898.153Z" transform="translate(-650.61 -861.632)" fill="#161615"/></g><g transform="translate(18.909 14.184)"><path d="M845.577,871.588c.069-.8.178-1.639.338-2.534,1.4-7.809,11.415-13.817,13.771-15.132a.322.322,0,0,1,.478.293v6.925a3.928,3.928,0,0,1-2.608,3.7,11.846,11.846,0,0,0-7.146,7.307A10.129,10.129,0,0,0,845.577,871.588Z" transform="translate(-845.194 -853.533)" fill="#fff"/><path d="M847.133,869.431l-.327-.117a9.754,9.754,0,0,0-4.665-.543l-.435.066.038-.438c.073-.845.189-1.708.343-2.566.61-3.394,2.844-6.825,6.639-10.2a43.391,43.391,0,0,1,7.3-5.174.659.659,0,0,1,.671.012.672.672,0,0,1,.322.588v6.92a4.283,4.283,0,0,1-2.838,4.026,10.989,10.989,0,0,0-4.528,3.031,12.3,12.3,0,0,0-2.408,4.066Zm-3.778-1.443a10.937,10.937,0,0,1,3.361.562,12.2,12.2,0,0,1,7.236-7.2,3.588,3.588,0,0,0,2.378-3.374v-6.9c-2.112,1.184-12.183,7.2-13.561,14.87-.125.693-.223,1.389-.294,2.076C842.772,868,843.066,867.988,843.355,867.988Z" transform="translate(-841.706 -850.374)" fill="#161615"/></g><g transform="translate(56.479 39.279)"><path d="M1235.663,1110.536a1.345,1.345,0,0,0,.87-.753c.319-.714.678-1.859-.089-2.207-1.142-.519-3.219,1.61-3.219,1.61l-1.015,1.644-.928.451C1232.133,1111.515,1233.772,1111.126,1235.663,1110.536Z" transform="translate(-1230.306 -1107.148)" fill="#fff"/><path d="M1222.992,1108.546a2.65,2.65,0,0,1-.7-.082l-.885-.244,1.663-.809.982-1.591.027-.027a9.8,9.8,0,0,1,1.229-1.041c.986-.7,1.787-.912,2.381-.642.451.2,1.083.823.262,2.664a1.69,1.69,0,0,1-1.089.944A14.475,14.475,0,0,1,1222.992,1108.546Zm1.609-2.3-.958,1.554a20.223,20.223,0,0,0,3.02-.75l.011,0a1,1,0,0,0,.646-.56c.2-.447.607-1.513.084-1.751-.342-.155-.942.048-1.687.572A9.321,9.321,0,0,0,1224.6,1106.25Z" transform="translate(-1221.407 -1103.997)" fill="#161615"/></g><g transform="translate(18.854 31.798)"><path d="M851.019,1044.159a1.8,1.8,0,0,0-.236-1.411,1.862,1.862,0,0,0-1.674-.611c-.055-.013-.163-.151-.276-.415l.059-.016a19.889,19.889,0,0,1,.688-9.159,10.132,10.132,0,0,0-4.834-.559,17.6,17.6,0,0,0,1.125,8.606l-.284-.026.123.477a23.086,23.086,0,0,1,.864,4.877,2.057,2.057,0,0,0,.14.809c.375.77.658,1.278,1.146,1.33a1.167,1.167,0,0,0,.956-.572c.2-.253.277-.223.542-.123a.825.825,0,0,0,1.151-.36c.084-.143.106-.158.411-.065a.9.9,0,0,0,.738,0,.866.866,0,0,0,.378-.6A2.475,2.475,0,0,0,851.019,1044.159Z" transform="translate(-844.308 -1031.547)" fill="#fff"/><path d="M844.778,1045.253a1.006,1.006,0,0,1-.109-.006c-.716-.075-1.075-.811-1.421-1.522a2.316,2.316,0,0,1-.174-.939,22.783,22.783,0,0,0-.853-4.812l-.246-.954.206.019a18.524,18.524,0,0,1-.934-8.239l.024-.271.269-.042a10.451,10.451,0,0,1,5,.575l.325.117-.116.325a19.69,19.69,0,0,0-.674,8.979l.027.145h0a2.1,2.1,0,0,1,1.8.754,2.045,2.045,0,0,1,.33,1.489,2.672,2.672,0,0,1,.981,2.39,1.2,1.2,0,0,1-.543.818,1.216,1.216,0,0,1-1.012.034l-.057-.017a1.152,1.152,0,0,1-1.526.434l-.106-.039c-.011.012-.024.028-.042.05A1.586,1.586,0,0,1,844.778,1045.253Zm-1.887-7.452h0a23.408,23.408,0,0,1,.874,4.943,1.809,1.809,0,0,0,.105.677c.364.747.587,1.107.871,1.137.189.019.4-.12.646-.44a.677.677,0,0,1,.937-.234c.3.113.515.16.73-.21.232-.4.54-.3.812-.221.2.06.344.1.464.028.036-.021.145-.083.214-.376.185-.786-.573-1.549-.907-1.842l-.152-.132.04-.2a1.462,1.462,0,0,0-.174-1.135,1.549,1.549,0,0,0-1.383-.472l-.046,0-.045-.01c-.131-.03-.307-.127-.517-.616l-.158-.368.142-.038a20.148,20.148,0,0,1,.641-8.69,9.724,9.724,0,0,0-4.071-.468,17.079,17.079,0,0,0,1.119,8.161l.234.537Z" transform="translate(-841.153 -1028.391)" fill="#161615"/></g></g><g transform="translate(127.399 142.878)"><g transform="translate(0 38.273)"><path d="M1881.949,2253.751v2.2c0,.563-.29,1.029-.672,1.08l-34.335,3.112a2.444,2.444,0,0,1-.764-.016c-.066-.011-.132-.026-.2-.042l-23.922-4.509a.775.775,0,0,1-.441-.785v-2.325l25.382-3.146,3.267-1.546,3.249.468,1.919-.368,4.384,1.276Z" transform="translate(-1820.379 -2246.496)" fill="#fff"/><path d="M1835.349,2249.771a3.765,3.765,0,0,1-.645-.056l-.012,0c-.078-.014-.157-.031-.235-.049l-23.932-4.511-.04-.01a1.977,1.977,0,0,1-1.369-1.983v-3.418l26.269-3.256,3.424-1.62,3.413.492,2.007-.385,4.624,1.346,23.07,4.8v3.207a2.189,2.189,0,0,1-1.746,2.306l-.051.006-34.308,3.109A3.654,3.654,0,0,1,1835.349,2249.771Zm-.216-2.492a1.236,1.236,0,0,0,.376.007l.058-.007,33.881-3.071v-1.083l-21.194-4.406-4.145-1.207-1.83.351-3.086-.445-3.11,1.472-24.495,3.036v.909l23.39,4.409.034.008C1835.053,2247.262,1835.093,2247.271,1835.133,2247.279Z" transform="translate(-1809.116 -2234.864)" fill="#161615"/></g><g transform="translate(24.565 38.302)"><path d="M2105.648,2253.749v2.2c0,.563-.289,1.029-.672,1.08l-34.333,3.112a2.454,2.454,0,0,1-.763-.016v-11.854l4.086-.5,3.248.468,1.917-.368,4.385,1.276Z" transform="translate(-2068.644 -2246.523)" fill="#fff"/><path d="M2059.036,2250.039a3.292,3.292,0,0,1-.688-.068l-.967-.216v-13.94l5.335-.653,3.206.462,2.006-.385,4.624,1.346,23.069,4.8v3.207a2.189,2.189,0,0,1-1.746,2.306l-.051.006-34.308,3.108A3.705,3.705,0,0,1,2059.036,2250.039Zm.818-12.035v9.491l33.294-3.017v-1.083l-21.194-4.406-4.145-1.207-1.83.351-3.29-.475Z" transform="translate(-2057.381 -2235.162)" fill="#161615"/></g><path d="M1855.433,2248.786l-33.817,4.489,24.391,4.594a2.365,2.365,0,0,0,.907.053l35.034-3.258Z" transform="translate(-1820.379 -2209.135)" fill="#161615"/><g transform="translate(10.565)"><path d="M1969.53,1903.035c0,1.611-5.068,2.862-12.065,3.188-1.766.081-3.654.1-5.613.058-9.629-.222-17.367-2.013-17.367-4a.538.538,0,0,1,.013-.142h-.013l.04-.1a.53.53,0,0,1,.036-.092l2.221-5.806,2.682-7.005,3.756-9.818,2.875-7.516,3.576-9.345a2.553,2.553,0,0,1,2.172-1.9,1.6,1.6,0,0,1,.359.039,2.773,2.773,0,0,1,1.82,1.861l3.606,9.411,2.879,7.615,3.8,10.015v0l2.728,7.2v0l.044,0,2.272,5.848A.941.941,0,0,1,1969.53,1903.035Z" transform="translate(-1932.646 -1859.33)" fill="#fff"/><path d="M1937.074,1896.277q-1,0-2.007-.024a65.245,65.245,0,0,1-12.544-1.369c-3.187-.734-5.055-1.637-5.736-2.79l-.9-.019.72-1.722q.024-.072.056-.143l2.206-5.768,2.682-7.006,10.206-26.679a3.743,3.743,0,0,1,3.328-2.692,2.853,2.853,0,0,1,.628.069,3.951,3.951,0,0,1,2.705,2.625l3.606,9.41,2.882,7.62,3.88,10.228,2.376,6.267.036,0,2.51,6.459a2.037,2.037,0,0,1,.3,1.022c0,1.927-2.474,2.791-4.335,3.273a45.691,45.691,0,0,1-8.909,1.15C1939.566,1896.249,1938.331,1896.277,1937.074,1896.277Zm-18.046-5.323c.369.33,1.66,1.035,4.8,1.684a65.929,65.929,0,0,0,11.294,1.143c1.891.043,3.75.024,5.528-.058a46.81,46.81,0,0,0,7.731-.912,8.416,8.416,0,0,0,3.047-1.1l-1.984-5.108-.4-.039v-.9l-2.729-7.2-3.719-9.8-2.88-7.616-3.6-9.406c-.275-.718-.672-1.039-.928-1.095l-.01,0a.394.394,0,0,0-.085-.009c-.287,0-.728.345-1.017,1.1l-3.576,9.346-6.631,17.333-2.682,7.006Zm-1.316,1.161a1.237,1.237,0,0,0,1.232-.939l-.073.18-1.126-.471-.029,1.231Z" transform="translate(-1915.889 -1848.066)" fill="#161615"/><path d="M1987.946,2156.942a39.857,39.857,0,0,1-9.893,1.456c-1.691.079-3.48.105-5.344.07-6.47-.123-12.079-.955-15.065-2.087l2.685-7.006a63.727,63.727,0,0,0,12.385,1.256c1.573.024,3.107,0,4.567-.055a53.227,53.227,0,0,0,7.916-.836l2.705,7.2v0Z" transform="translate(-1953.513 -2119.561)" fill="#db0c17"/><path d="M2040.079,1981.871c-1.673.181-3.513.3-5.465.359-1.046.031-2.123.041-3.223.031a74.891,74.891,0,0,1-8.632-.556l2.875-7.516c1.8.142,3.736.223,5.757.235q1.071.006,2.109-.015c1.267-.024,2.495-.074,3.667-.153Z" transform="translate(-2012.184 -1961.709)" fill="#db0c17"/></g></g><g transform="translate(171.552 60.484)"><rect width="9.885" height="9.885" transform="translate(0.346 0.346)" fill="#db0c17"/><path d="M2265.914,1025.95h-10.578v-10.578h10.578Zm-9.885-.693h9.193v-9.193h-9.193Z" transform="translate(-2255.336 -1015.372)" fill="#db0c17"/><g transform="translate(14.739 1.621)"><line x2="15.547" transform="translate(0 0.445)" fill="#fff"/><rect width="15.547" height="0.891" fill="#161615"/><g transform="translate(0 2.321)"><line x2="27.555" transform="translate(0 0.346)" fill="#fff"/><rect width="27.555" height="0.693" fill="#161615"/></g><g transform="translate(0 4.433)"><line x2="27.555" transform="translate(0 0.346)" fill="#fff"/><rect width="27.555" height="0.693" fill="#161615"/></g><g transform="translate(0 6.544)"><line x2="27.555" transform="translate(0 0.346)" fill="#fff"/><rect width="27.555" height="0.693" fill="#161615"/></g></g></g><g transform="translate(171.552 79.283)"><rect width="9.885" height="9.885" transform="translate(0.346 0.346)" fill="#db0c17"/><path d="M2265.914,1215.938h-10.578V1205.36h10.578Zm-9.885-.693h9.193v-9.193h-9.193Z" transform="translate(-2255.336 -1205.36)" fill="#db0c17"/><g transform="translate(14.739 1.621)"><line x2="15.547" transform="translate(0 0.445)" fill="#fff"/><rect width="15.547" height="0.891" fill="#161615"/><g transform="translate(0 2.321)"><line x2="27.555" transform="translate(0 0.346)" fill="#fff"/><rect width="27.555" height="0.693" fill="#161615"/></g><g transform="translate(0 4.433)"><line x2="27.555" transform="translate(0 0.346)" fill="#fff"/><rect width="27.555" height="0.693" fill="#161615"/></g><g transform="translate(0 6.544)"><line x2="27.555" transform="translate(0 0.346)" fill="#fff"/><rect width="27.555" height="0.693" fill="#161615"/></g></g></g><g transform="translate(171.552 97.779)"><rect width="9.885" height="9.885" transform="translate(0.346 0.346)" fill="#fff"/><path d="M2265.914,1402.863h-10.578v-10.578h10.578Zm-9.885-.693h9.193v-9.193h-9.193Z" transform="translate(-2255.336 -1392.285)" fill="#161615"/><g transform="translate(14.739 1.621)"><line x2="15.547" transform="translate(0 0.445)" fill="#fff"/><rect width="15.547" height="0.891" fill="#161615"/><g transform="translate(0 2.321)"><line x2="27.555" transform="translate(0 0.346)" fill="#fff"/><rect width="27.555" height="0.693" fill="#161615"/></g><g transform="translate(0 4.433)"><line x2="27.555" transform="translate(0 0.346)" fill="#fff"/><rect width="27.555" height="0.693" fill="#161615"/></g><g transform="translate(0 6.544)"><line x2="27.555" transform="translate(0 0.346)" fill="#fff"/><rect width="27.555" height="0.693" fill="#161615"/></g></g></g><g transform="translate(171.552 116.578)"><rect width="9.885" height="9.885" transform="translate(0.346 0.346)" fill="#fff"/><path d="M2265.914,1592.849h-10.578v-10.578h10.578Zm-9.885-.693h9.193v-9.192h-9.193Z" transform="translate(-2255.336 -1582.272)" fill="#161615"/><g transform="translate(14.739 1.621)"><line x2="15.547" transform="translate(0 0.445)" fill="#fff"/><rect width="15.547" height="0.891" fill="#161615"/><g transform="translate(0 2.321)"><line x2="27.555" transform="translate(0 0.346)" fill="#fff"/><rect width="27.555" height="0.693" fill="#161615"/></g><g transform="translate(0 4.433)"><line x2="27.555" transform="translate(0 0.346)" fill="#fff"/><rect width="27.555" height="0.693" fill="#161615"/></g><g transform="translate(0 6.544)"><line x2="27.555" transform="translate(0 0.346)" fill="#fff"/><rect width="27.555" height="0.693" fill="#161615"/></g></g></g><g transform="translate(171.552 135.683)"><rect width="9.885" height="9.885" transform="translate(0.346 0.346)" fill="#fff"/><path d="M2265.914,1785.927h-10.578v-10.578h10.578Zm-9.885-.693h9.193v-9.192h-9.193Z" transform="translate(-2255.336 -1775.349)" fill="#161615"/><g transform="translate(14.739 1.621)"><line x2="15.547" transform="translate(0 0.445)" fill="#fff"/><rect width="15.547" height="0.891" fill="#161615"/><g transform="translate(0 2.321)"><line x2="27.555" transform="translate(0 0.346)" fill="#fff"/><rect width="27.555" height="0.693" fill="#161615"/></g><g transform="translate(0 4.433)"><line x2="27.555" transform="translate(0 0.346)" fill="#fff"/><rect width="27.555" height="0.693" fill="#161615"/></g><g transform="translate(0 6.544)"><line x2="27.555" transform="translate(0 0.346)" fill="#fff"/><rect width="27.555" height="0.693" fill="#161615"/></g></g></g></g></g></svg>