<svg xmlns="http://www.w3.org/2000/svg" xmlns:xlink="http://www.w3.org/1999/xlink" width="40" height="40" viewBox="0 0 40 40"><defs><clipPath id="b"><rect width="40" height="40"/></clipPath></defs><g id="a" clip-path="url(#b)"><rect width="40" height="40" fill="rgba(255,255,255,0)"/><g transform="translate(301 1221) rotate(180)"><path d="M19,1A18,18,0,0,0,6.272,31.728,18,18,0,1,0,31.728,6.272,17.882,17.882,0,0,0,19,1m0-1A19,19,0,1,1,0,19,19,19,0,0,1,19,0Z" transform="translate(262 1182)" fill="#707070"/><path d="M284.216,1210.615l-10.371-10.065,10.364-10.469.711.7-9.653,9.751,9.646,9.361Z" fill="#707070"/></g></g></svg>