<?xml version="1.0" encoding="UTF-8"?>
<svg id="uuid-793c8bd9-3718-4eb6-a630-c73db25e7026" data-name="Layer 1" xmlns="http://www.w3.org/2000/svg" viewBox="0 0 784.93 235.48">
  <path d="m729.04,222.82H62.37c-6.21,0-18.02-1.39-27.33-10.68-9.31-9.33-10.69-21.13-10.69-27.33V50.6c0-6.2,1.39-18,10.69-27.31,9.31-9.32,21.12-10.71,27.33-10.71h666.67c6.21,0,18.01,1.39,27.32,10.7,9.3,9.3,10.69,21.1,10.69,27.31v134.21c0,6.21-1.39,18.01-10.69,27.32-9.31,9.3-21.12,10.69-27.32,10.69" fill="#fff"/>
  <path d="m729.04,222.82H62.37c-6.21,0-18.02-1.39-27.33-10.68-9.31-9.33-10.69-21.13-10.69-27.33V50.6c0-6.2,1.39-18,10.69-27.31,9.31-9.32,21.12-10.71,27.33-10.71h666.67c6.21,0,18.01,1.39,27.32,10.7,9.3,9.3,10.69,21.1,10.69,27.31v134.21c0,6.21-1.39,18.01-10.69,27.32-9.31,9.3-21.12,10.69-27.32,10.69Z" fill="none" stroke="#000" stroke-miterlimit="10" stroke-width=".5"/>
  <path d="m252.13,216.97h476.91c7.73,0,16.63-2.43,23.19-8.97,6.55-6.56,8.97-15.45,8.97-23.19V50.6c0-7.73-2.42-16.63-8.97-23.18-6.56-6.56-15.46-8.99-23.19-8.99H62.37c-7.73,0-16.63,2.43-23.19,8.99-6.54,6.55-8.98,15.45-8.98,23.18v134.21c0,7.74,2.44,16.63,8.98,23.19,6.56,6.55,15.46,8.97,23.19,8.97h189.75Z" fill="red"/>
  <polygon points="136.1 87.54 136.1 109.07 223.71 109.07 223.71 132.01 136.1 132.01 136.1 172.86 107.41 172.86 107.41 62.55 228.52 62.55 228.52 87.54 136.1 87.54" fill="#fff"/>
  <path d="m655.77,88.9c-3.83-3.09-19.35-3.4-39.24-3.4-13.7,0-25.27.32-31.39.82-3.33.28-6.12,1.1-8.08,2.58-3.52,2.72-3.98,6.64-3.98,27.16,0,3.96,0,7.96.17,11.89.16,10.31.79,14.26,2.91,16.72,1.39,1.69,4,2.83,7.18,3.35,6.45,1.12,19.99,1.76,35.06,1.76,22.97,0,34.26,0,38.2-4.3,2.78-3.12,3.47-8.27,3.47-29.9,0-6.78.83-22.32-4.29-26.69m32.08,59.12c-1.16,6.39-4.12,12.03-8.6,16.19-9.75,9.06-24.48,9.43-60.85,9.43-44.36,0-56.1-.36-66.02-10.42-7.14-7.3-8.59-15.06-8.59-42.52,0-6.12,0-12.22.16-18.52.5-16.68,3.01-25.15,9.41-31.48,8.12-7.54,19.37-9.54,58.92-9.54,4.94,0,14.72.13,29.43.47,20.66.36,27.8,1.52,35.69,6.48,9.45,5.81,12.1,16.05,12.1,47.09,0,16.24-.6,26.48-1.64,32.81" fill="#fff"/>
  <path d="m518.67,165.62c-5.3,5.81-11.62,7.45-24.33,7.45h-98.09v-24.49h88.68c5.27,0,7.42,0,9.53-1.28,1.86-1.16,2.51-3.18,2.51-8.99,0-4.59-.5-6.09-2.31-7.59-1.65-1.3-3.15-1.62-8.79-1.62h-55.87c-14.91,0-19.86-1.15-25.98-5.97-6.1-4.79-8.43-12.9-8.43-29.42,0-11.3,1.33-16.88,5.13-22.34,1.81-2.47,4.32-4.46,7.26-5.8,5.65-2.48,8.3-2.79,21.5-2.79h92.29v23.8h-86.31c-9.11,0-10.92,1.47-10.92,9.41,0,7.13,2.33,8.95,10.58,8.95h57.7c16.75,0,26.17,4.48,30.46,14.36,2.18,4.98,2.96,10.62,2.96,20.37,0,13.06-1.96,19.83-7.57,25.96" fill="#fff"/>
  <path d="m367.95,163.74c-6.08,8.23-15.34,11.41-35.69,11.59l-18.51.12-22.97-.12c-21.53-.18-30.81-3.67-37.55-13.3-4.16-5.76-5.81-13.19-5.81-26.25V63.8h28.79v69.17c0,14.72,2.97,17.04,20.69,17.17l15.39.17,15.03-.3c16.34-.35,18.53-2.47,18.53-20.21V63.8h29.1v65.85c0,20.01-1.51,26.62-6.98,34.09" fill="#fff"/>
</svg>