<?xml version="1.0" encoding="UTF-8"?>
<svg id="uuid-1519e87b-4472-4fc8-a4b2-f56d033542da" data-name="Layer 1" xmlns="http://www.w3.org/2000/svg" viewBox="0 0 821.65 235.48">
  <path d="m761.36,227.27H58.73c-6.54,0-18.98-1.45-28.8-11.16-9.81-9.75-11.27-22.08-11.27-28.56V47.26c0-6.49,1.47-18.81,11.26-28.54,9.82-9.74,22.26-11.19,28.8-11.19h702.62c6.54,0,18.98,1.45,28.79,11.18,9.8,9.72,11.27,22.06,11.27,28.55v140.28c0,6.49-1.47,18.83-11.26,28.56-9.82,9.72-22.26,11.17-28.8,11.17" fill="#fff"/>
  <path d="m258.23,222.36h504.27c8.17,0,17.58-2.56,24.52-9.48,6.93-6.94,9.49-16.34,9.49-24.52V46.44c0-8.17-2.56-17.58-9.49-24.51-6.93-6.94-16.34-9.5-24.52-9.5H57.59c-8.18,0-17.59,2.57-24.53,9.5-6.92,6.93-9.49,16.34-9.49,24.51v141.91c0,8.18,2.58,17.58,9.49,24.52,6.93,6.92,16.35,9.48,24.53,9.48h200.64Z"/>
  <polygon points="135.54 85.5 135.54 108.26 228.18 108.26 228.18 132.53 135.54 132.53 135.54 175.72 105.21 175.72 105.21 59.07 233.26 59.07 233.26 85.5 135.54 85.5" fill="#fff"/>
  <path d="m685.03,86.93c-4.05-3.26-20.47-3.6-41.49-3.6-14.49,0-26.72.34-33.19.87-3.53.29-6.47,1.17-8.55,2.73-3.72,2.88-4.2,7.03-4.2,28.72,0,4.18,0,8.41.18,12.57.18,10.9.84,15.08,3.08,17.68,1.47,1.79,4.23,2.99,7.59,3.54,6.82,1.19,21.13,1.86,37.08,1.86,24.29,0,36.22,0,40.39-4.54,2.94-3.3,3.67-8.75,3.67-31.61,0-7.18.88-23.6-4.53-28.22m33.92,62.51c-1.23,6.76-4.36,12.72-9.1,17.11-10.31,9.58-25.88,9.96-64.34,9.96-46.9,0-59.32-.38-69.81-11.02-7.54-7.72-9.08-15.93-9.08-44.96,0-6.47,0-12.92.16-19.58.53-17.64,3.18-26.6,9.95-33.29,8.59-7.97,20.49-10.08,62.3-10.08,5.22,0,15.56.14,31.13.51,21.84.38,29.39,1.6,37.73,6.84,9.99,6.14,12.79,16.97,12.79,49.8,0,17.17-.64,27.99-1.73,34.69" fill="#fff"/>
  <path d="m540.06,168.06c-5.61,6.15-12.29,7.88-25.73,7.88h-103.72v-25.9h93.77c5.58,0,7.84,0,10.08-1.36,1.97-1.23,2.65-3.37,2.65-9.5,0-4.85-.53-6.44-2.45-8.02-1.75-1.38-3.33-1.72-9.3-1.72h-59.07c-15.76,0-21-1.21-27.47-6.31-6.45-5.05-8.91-13.64-8.91-31.11,0-11.95,1.41-17.85,5.42-23.62,1.91-2.61,4.57-4.72,7.68-6.14,5.97-2.62,8.78-2.95,22.73-2.95h97.58v25.17h-91.27c-9.63,0-11.54,1.56-11.54,9.96,0,7.54,2.47,9.46,11.18,9.46h61.01c17.71,0,27.68,4.74,32.21,15.19,2.31,5.26,3.13,11.23,3.13,21.53,0,13.81-2.07,20.97-8,27.45" fill="#fff"/>
  <path d="m380.69,166.07c-6.43,8.71-16.22,12.07-37.74,12.25l-19.57.13-24.29-.13c-22.76-.19-32.57-3.87-39.71-14.06-4.4-6.09-6.14-13.93-6.14-27.76V60.39h30.43v73.13c0,15.57,3.14,18.02,21.88,18.16l16.27.18,15.89-.32c17.28-.38,19.59-2.61,19.59-21.37V60.39h30.76v69.62c0,21.16-1.6,28.16-7.38,36.05" fill="#fff"/>
</svg>