<?xml version="1.0" encoding="UTF-8"?>
<svg id="uuid-41426c29-1a53-46ce-94a5-3e886098a693" data-name="Layer 1" xmlns="http://www.w3.org/2000/svg" viewBox="0 0 851.91 235.48">
  <path d="m709.41,115.37c0-7.22.88-23.78-4.57-28.43-4.08-3.29-20.62-3.62-41.81-3.62-14.6,0-26.92.33-33.44.87-3.56.3-6.52,1.18-8.62,2.75-3.75,2.9-4.24,7.08-4.24,28.94,0,4.22,0,8.48.18,12.67.18,10.97.84,15.18,3.1,17.81,1.48,1.8,4.26,3.01,7.64,3.57,6.88,1.2,21.3,1.88,37.36,1.88,24.47,0,36.49,0,40.7-4.58,2.97-3.32,3.69-8.81,3.69-31.85m31.35-.41c0,17.3-.64,28.21-1.75,34.96-1.24,6.81-4.39,12.82-9.16,17.24-10.39,9.65-26.08,10.05-64.83,10.05-47.26,0-59.76-.39-70.33-11.11-7.61-7.78-9.16-16.04-9.16-45.3,0-6.52,0-13.01.17-19.73.53-17.77,3.2-26.79,10.02-33.53,8.65-8.04,20.64-10.16,62.77-10.16,5.27,0,15.69.14,31.36.51,22.01.38,29.61,1.61,38.02,6.9,10.07,6.19,12.88,17.1,12.88,50.17m-173.92,26.05c0,13.92-2.09,21.13-8.07,27.66-5.65,6.2-12.38,7.94-25.92,7.94h-104.51v-26.09h94.48c5.62,0,7.9,0,10.16-1.37,1.99-1.24,2.67-3.39,2.67-9.58,0-4.89-.53-6.48-2.46-8.09-1.76-1.39-3.35-1.73-9.37-1.73h-59.52c-15.88,0-21.15-1.22-27.68-6.36-6.5-5.09-8.98-13.74-8.98-31.34,0-12.04,1.41-17.98,5.46-23.8,1.93-2.63,4.61-4.76,7.74-6.18,6.02-2.64,8.84-2.97,22.9-2.97h98.32v25.36h-91.96c-9.71,0-11.63,1.57-11.63,10.03,0,7.6,2.48,9.54,11.27,9.54h61.47c17.84,0,27.88,4.78,32.45,15.3,2.33,5.3,3.16,11.31,3.16,21.69m-161.2-10.67c0,21.31-1.61,28.36-7.44,36.32-6.48,8.77-16.34,12.16-38.02,12.35l-19.72.12-24.47-.12c-22.94-.2-32.83-3.91-40.01-14.17-4.43-6.14-6.2-14.05-6.2-27.97V60.19h30.67v73.69c0,15.69,3.16,18.16,22.05,18.3l16.39.18,16.01-.32c17.41-.38,19.74-2.63,19.74-21.53V60.19h31v70.16Zm-155.98-44.86h-98.47v22.93h93.34v24.45h-93.34v43.52h-30.57V58.86h129.03v26.62Zm567.51,103.63V46.14c0-8.24-2.58-17.71-9.56-24.69-6.99-6.99-16.47-9.58-24.7-9.58H72.65c-8.24,0-17.73,2.59-24.71,9.58-6.97,6.98-9.56,16.46-9.56,24.69v142.98c0,8.24,2.59,17.71,9.56,24.71,6.99,6.97,16.47,9.56,24.71,9.56h710.24c8.23,0,17.71-2.58,24.7-9.56,6.98-6.99,9.56-16.47,9.56-24.71" fill="#fff"/>
</svg>