<?xml version="1.0" encoding="UTF-8"?>
<svg id="uuid-9e1d266c-560b-4aaa-9cb7-08df79542e24" data-name="Layer 1" xmlns="http://www.w3.org/2000/svg" viewBox="0 0 823.5 236.69">
  <path d="m259.19,219.02h504.84c8.18,0,17.6-2.57,24.54-9.5,6.94-6.94,9.5-16.36,9.5-24.55V42.91c0-8.18-2.56-17.6-9.5-24.53-6.94-6.94-16.36-9.52-24.54-9.52H58.32c-8.19,0-17.61,2.57-24.55,9.52-6.92,6.94-9.5,16.35-9.5,24.53v142.07c0,8.19,2.58,17.6,9.5,24.55,6.94,6.93,16.37,9.5,24.55,9.5h200.87Z" fill="red"/>
  <polygon points="136.36 82.01 136.36 104.8 229.11 104.8 229.11 129.09 136.36 129.09 136.36 172.33 105.99 172.33 105.99 55.56 234.2 55.56 234.2 82.01 136.36 82.01" fill="#fff"/>
  <path d="m686.47,83.45c-4.05-3.27-20.49-3.6-41.54-3.6-14.51,0-26.75.34-33.23.87-3.53.29-6.48,1.17-8.56,2.73-3.73,2.88-4.21,7.03-4.21,28.75,0,4.19,0,8.42.18,12.58.17,10.91.83,15.09,3.08,17.7,1.47,1.79,4.24,2.99,7.6,3.55,6.83,1.19,21.16,1.87,37.11,1.87,24.32,0,36.26,0,40.44-4.55,2.95-3.3,3.67-8.76,3.67-31.65,0-7.18.88-23.63-4.54-28.25m33.96,62.58c-1.23,6.77-4.37,12.74-9.1,17.13-10.32,9.59-25.92,9.98-64.42,9.98-46.96,0-59.38-.38-69.89-11.03-7.56-7.73-9.1-15.94-9.1-45.01,0-6.48,0-12.93.17-19.6.53-17.66,3.18-26.63,9.96-33.32,8.6-7.99,20.51-10.09,62.37-10.09,5.23,0,15.58.14,31.16.5,21.87.38,29.42,1.61,37.78,6.86,10,6.15,12.81,16.99,12.81,49.85,0,17.19-.64,28.03-1.73,34.74" fill="#fff"/>
  <path d="m541.34,164.66c-5.61,6.15-12.3,7.89-25.76,7.89h-103.83v-25.93h93.87c5.58,0,7.85,0,10.09-1.36,1.97-1.23,2.65-3.37,2.65-9.51,0-4.86-.53-6.45-2.45-8.04-1.74-1.38-3.33-1.72-9.31-1.72h-59.14c-15.78,0-21.02-1.22-27.5-6.31-6.45-5.07-8.93-13.65-8.93-31.15,0-11.96,1.41-17.87,5.43-23.65,1.92-2.61,4.58-4.73,7.69-6.14,5.98-2.62,8.79-2.96,22.76-2.96h97.69v25.19h-91.37c-9.65,0-11.56,1.56-11.56,9.96,0,7.55,2.47,9.47,11.2,9.47h61.08c17.73,0,27.71,4.74,32.25,15.2,2.31,5.27,3.13,11.25,3.13,21.56,0,13.83-2.07,20.99-8.01,27.48" fill="#fff"/>
  <path d="m381.79,162.67c-6.43,8.72-16.24,12.08-37.78,12.27l-19.59.13-24.32-.13c-22.79-.19-32.61-3.88-39.75-14.08-4.41-6.1-6.15-13.96-6.15-27.79V56.88h30.47v73.22c0,15.59,3.14,18.04,21.9,18.18l16.29.18,15.91-.32c17.3-.38,19.61-2.61,19.61-21.39V56.88h30.8v69.71c0,21.18-1.6,28.18-7.39,36.09" fill="#fff"/>
</svg>