<svg xmlns="http://www.w3.org/2000/svg" width="17.969" height="18.263" viewBox="0 0 17.969 18.263">
  <g id="Grupo_35856" data-name="Grupo 35856" transform="translate(-18.51 -18.33)">
    <g id="noun-chevron-arrow-2074151" transform="translate(18.51 18.33)">
      <path id="Trazado_245" data-name="Trazado 245" d="M18.076,9.581a.646.646,0,0,1-.913,0L9.14,1.542,1.1,9.581a.645.645,0,0,1-.912-.912L8.668.189A.63.63,0,0,1,9.125,0a.657.657,0,0,1,.456.189l8.48,8.48a.632.632,0,0,1,.016.912Z" transform="translate(9.77 0) rotate(90)" fill="#fff"/>
    </g>
    <g id="noun-chevron-arrow-2074151-2" data-name="noun-chevron-arrow-2074151" transform="translate(26.708 18.33)">
      <path id="Trazado_245-2" data-name="Trazado 245" d="M18.075.189a.646.646,0,0,0-.913,0L9.14,8.228,1.1.189A.645.645,0,0,0,.189,1.1l8.479,8.48a.63.63,0,0,0,.456.189.657.657,0,0,0,.456-.189L18.06,1.1a.632.632,0,0,0,.016-.912Z" transform="translate(9.77 0) rotate(90)" fill="#fff"/>
    </g>
  </g>
</svg>
