<svg xmlns="http://www.w3.org/2000/svg" width="63.6" height="43.365" viewBox="0 0 63.6 43.365">
  <g id="noun-quote-77918" transform="translate(-102.4 -103.841)">
    <path id="Trazado_45874" data-name="Trazado 45874" d="M141.544,103.842a14.452,14.452,0,0,0-.289,28.9,20.169,20.169,0,0,1-14.165,5.788v8.673A28.91,28.91,0,0,0,156,118.3a14.455,14.455,0,0,0-14.455-14.455Zm-34.69,0a14.453,14.453,0,0,0-.289,28.9A20.17,20.17,0,0,1,92.4,138.533v8.673A28.909,28.909,0,0,0,121.308,118.3a14.453,14.453,0,0,0-14.454-14.454Z" transform="translate(10)" fill="#c6a16e" fill-rule="evenodd"/>
  </g>
</svg>


