<svg xmlns="http://www.w3.org/2000/svg" width="13.433" height="19.582" viewBox="0 0 13.433 19.582">
  <path id="Trazado_11" data-name="Trazado 11" d="M141.344,6.6A6.531,6.531,0,0,1,144.995.816a6.314,6.314,0,0,1,7.129.629,6.764,6.764,0,0,1,1.751,8.766c-1.585,2.888-3.16,5.781-4.746,8.669a1.161,1.161,0,0,1-2.1.067q-2.517-4.578-4.993-9.178A6.672,6.672,0,0,1,141.344,6.6Zm9.448-.445a2.732,2.732,0,1,0-2.753,2.731A2.745,2.745,0,0,0,150.792,6.151Z" transform="translate(-141.344 0)" fill="#2490fc"/>
</svg>

