<svg xmlns="http://www.w3.org/2000/svg" width="16.502" height="16.503" viewBox="0 0 16.502 16.503">
  <g id="noun-web-1146540" transform="translate(-229.41 -151.24)">
    <path id="Trazado_45448" data-name="Trazado 45448" d="M237.661,151.39a8.1,8.1,0,1,0,8.1,8.1A8.11,8.11,0,0,0,237.661,151.39Zm3.6,8.1A9.58,9.58,0,0,1,240.6,163a10.173,10.173,0,0,0-2.637-.426v-3.3h3.3c0,.071.006.142.006.213Zm-7.194-.213h3.3v3.29a10.157,10.157,0,0,0-2.639.427,9.576,9.576,0,0,1-.663-3.5c0-.072,0-.142.006-.214Zm.659-3.294a10.2,10.2,0,0,0,2.637.426v2.273H234.1a9.527,9.527,0,0,1,.628-2.7Zm-1.225,2.7h-3.3a7.475,7.475,0,0,1,1.744-4.047,9.6,9.6,0,0,0,2.219,1.159,10.137,10.137,0,0,0-.661,2.888Zm4.457-6.288a8.324,8.324,0,0,1,2.4,3.038,9.584,9.584,0,0,1-2.4.381Zm-.6,3.419a9.587,9.587,0,0,1-2.4-.381,8.325,8.325,0,0,1,2.4-3.038Zm0,7.355v3.42a8.327,8.327,0,0,1-2.4-3.039,9.6,9.6,0,0,1,2.4-.381Zm.6,0a9.6,9.6,0,0,1,2.4.381,8.325,8.325,0,0,1-2.4,3.039Zm0-4.486V156.41a10.173,10.173,0,0,0,2.637-.426,9.526,9.526,0,0,1,.627,2.7h-3.265Zm3.2-2.889a9.611,9.611,0,0,0,2.22-1.157,7.471,7.471,0,0,1,1.744,4.046h-3.3A10.126,10.126,0,0,0,241.159,155.793Zm1.813-1.6a9,9,0,0,1-2.046,1.054,8.972,8.972,0,0,0-2.474-3.219A7.489,7.489,0,0,1,242.972,154.193Zm-6.1-2.165a8.975,8.975,0,0,0-2.475,3.22,8.984,8.984,0,0,1-2.046-1.054A7.489,7.489,0,0,1,236.871,152.027Zm-6.71,7.251h3.312c0,.071-.006.142-.006.213a10.166,10.166,0,0,0,.694,3.691,9.584,9.584,0,0,0-2.221,1.159,7.472,7.472,0,0,1-1.784-4.85C230.155,159.42,230.158,159.349,230.161,159.278Zm2.19,5.513a8.99,8.99,0,0,1,2.046-1.054,8.967,8.967,0,0,0,2.474,3.219A7.487,7.487,0,0,1,232.351,164.791Zm6.1,2.165a8.965,8.965,0,0,0,2.474-3.22,8.983,8.983,0,0,1,2.046,1.054A7.49,7.49,0,0,1,238.452,166.955Zm4.926-2.609a9.572,9.572,0,0,0-2.218-1.159,10.166,10.166,0,0,0,.7-3.7c0-.071,0-.142-.006-.213h3.311c0,.071.005.142.005.213a7.471,7.471,0,0,1-1.788,4.856Z" transform="translate(0 0)" fill="#c6a16e" stroke="#c6a16e" stroke-width="0.3"/>
  </g>
</svg>

