<svg xmlns="http://www.w3.org/2000/svg" width="16.952" height="16.952" viewBox="0 0 16.952 16.952">
  <g id="noun-clock-1567336" transform="translate(1170.775 -1110.096)">
    <path id="Trazado_15256" data-name="Trazado 15256" d="M111.7,33.6a8.1,8.1,0,1,0,8.1,8.1A8.106,8.106,0,0,0,111.7,33.6Zm0,.736a7.364,7.364,0,1,1-7.364,7.364A7.359,7.359,0,0,1,111.7,34.338Zm-.04,1.283a.382.382,0,0,0-.328.374V41.7a.376.376,0,0,0,.19.322L115.2,44.05a.368.368,0,1,0,.357-.644l-3.493-1.922V36a.383.383,0,0,0-.374-.374h-.035Z" transform="translate(-1274 1076.869)" fill="#c6a16e" stroke="#c6a16e" stroke-width="0.75"/>
  </g>
</svg>

