<svg xmlns="http://www.w3.org/2000/svg" width="11.701" height="16.953" viewBox="0 0 11.701 16.953">
  <g id="noun-location-1049915" transform="translate(-209.625 -61.144)">
    <path id="Trazado_15257" data-name="Trazado 15257" d="M215.475,61.519a5.27,5.27,0,0,0-5.475,5.4,5.467,5.467,0,0,0,.794,2.894l4.291,7.683h0a.449.449,0,0,0,.78,0l4.291-7.683a5.469,5.469,0,0,0,.794-2.894,5.27,5.27,0,0,0-5.475-5.4Zm0,.831a4.34,4.34,0,0,1,4.6,4.568,4.494,4.494,0,0,1-.7,2.5l-3.9,6.982-3.9-6.982a4.5,4.5,0,0,1-.7-2.5,4.34,4.34,0,0,1,4.6-4.568Zm0,1.869A2.5,2.5,0,1,0,218.1,66.71,2.569,2.569,0,0,0,215.475,64.218Zm0,.831a1.664,1.664,0,1,1-1.752,1.661A1.7,1.7,0,0,1,215.475,65.049Z" fill="#c6a16e" stroke="#c6a16e" stroke-width="0.75"/>
  </g>
</svg>

